<?xml version="1.0" encoding="UTF-8"?>
<svg id="Layer_2" data-name="Layer 2" xmlns="http://www.w3.org/2000/svg" viewBox="0 0 264.23 166.05">
  <defs>
    <style>
      .cls-1 {
        fill: #f2ece5;
      }

      .cls-1, .cls-2, .cls-3, .cls-4, .cls-5, .cls-6, .cls-7, .cls-8 {
        stroke-width: 0px;
      }

      .cls-2 {
        fill: #393842;
      }

      .cls-3 {
        fill: #57565e;
      }

      .cls-4 {
        fill: #436d9a;
      }

      .cls-5 {
        fill: #c5c9d8;
      }

      .cls-6 {
        fill: #e1e3eb;
      }

      .cls-7 {
        fill: #ced6dd;
      }

      .cls-8 {
        fill: #678cb4;
      }
    </style>
  </defs>
  <g id="Layer_1-2" data-name="Layer 1">
    <g>
      <path class="cls-4" d="M217.7,88.35v-4.81l-3.91.47-77.56-44.78c-2.47-1.43-6.47-1.43-8.92,0L8.16,108.47,0,109.44v5.15h0c-.05.98.56,1.97,1.85,2.72l78.92,45.57c3.38,1.95,8.85,1.96,12.21,0l122.2-71.01c1.63-.95,2.46-2.18,2.5-3.42h0v-.1Z"/>
      <g>
        <path class="cls-1" d="M215.84,80.42l-78.92-45.57c-3.38-1.95-8.85-1.95-12.22,0L2.51,105.87c-3.36,1.95-3.34,5.12.04,7.08l78.92,45.57c2.47,1.43,6.47,1.43,8.93,0l125.47-72.92c2.46-1.43,2.44-3.74-.03-5.17h0Z"/>
        <g>
          <path class="cls-6" d="M35.26,128.46l46.56,26.88c1.63.94,4.27.94,5.9,0l122.67-71.29c1.62-.94,1.61-2.47-.02-3.41l-46.56-26.88c-1.63-.94-4.27-.94-5.9,0L35.24,125.04c-1.62.94-1.61,2.47.02,3.41Z"/>
          <g>
            <path class="cls-2" d="M203.8,80.79v-.66h-.55s-5.58-3.22-5.58-3.22c-.57-.33-1.49-.33-2.06,0l-5.6,3.25h-.49v.63h0v.04h0c.02.2.15.4.42.56l5.69,3.29c.57.33,1.5.33,2.06,0l5.66-3.29c.28-.16.42-.38.42-.6Z"/>
            <path class="cls-2" d="M167.86,60.04v-.66h-.55s-5.58-3.22-5.58-3.22c-.57-.33-1.49-.33-2.06,0l-5.6,3.25h-.49v.63h0v.04h0c.02.2.15.4.42.56l5.69,3.29c.57.33,1.5.33,2.06,0l5.66-3.29c.28-.16.42-.38.42-.6Z"/>
            <path class="cls-2" d="M159,65.19v-.66h-.55s-5.58-3.22-5.58-3.22c-.57-.33-1.49-.33-2.06,0l-5.6,3.25h-.49v.63h0v.04h0c.02.2.16.4.42.56l5.69,3.29c.57.33,1.5.33,2.06,0l5.66-3.29c.28-.16.42-.38.42-.6Z"/>
            <path class="cls-2" d="M150.13,70.35v-.66h-.55s-5.58-3.22-5.58-3.22c-.57-.33-1.49-.33-2.06,0l-5.6,3.25h-.49v.63h0v.04h0c.02.2.15.4.42.56l5.69,3.29c.57.33,1.5.33,2.06,0l5.66-3.29c.28-.16.42-.38.42-.6Z"/>
            <path class="cls-2" d="M141.26,75.5v-.66h-.55s-5.58-3.22-5.58-3.22c-.57-.33-1.49-.33-2.06,0l-5.6,3.25h-.49v.63h0v.04h0c.02.2.16.4.42.56l5.69,3.29c.57.33,1.5.33,2.06,0l5.66-3.29c.28-.16.42-.38.42-.6Z"/>
            <path class="cls-2" d="M194.93,85.94v-.66h-.55s-5.58-3.22-5.58-3.22c-.57-.33-1.49-.33-2.06,0l-5.6,3.25h-.49v.63h0v.04h0c.02.2.15.4.42.56l5.69,3.29c.57.33,1.5.33,2.06,0l5.66-3.29c.28-.16.42-.38.42-.6Z"/>
            <path class="cls-2" d="M181,83.7v-.66h-.55s-5.58-3.22-5.58-3.22c-.57-.33-1.49-.33-2.06,0l-5.6,3.25h-.49v.63h0v.04h0c.02.2.15.4.42.56l5.69,3.29c.57.33,1.5.33,2.06,0l5.66-3.29c.28-.16.42-.38.42-.6Z"/>
            <path class="cls-2" d="M172.13,88.86v-.66h-.55s-5.58-3.22-5.58-3.22c-.57-.33-1.49-.33-2.06,0l-5.6,3.25h-.49v.63h0v.04h0c.02.2.15.4.42.56l5.69,3.29c.57.33,1.5.33,2.06,0l5.66-3.29c.28-.16.42-.38.42-.6Z"/>
            <path class="cls-2" d="M167.52,81.06v-.66h-.55s-5.58-3.22-5.58-3.22c-.57-.33-1.49-.33-2.06,0l-5.6,3.25h-.49v.63h0v.04h0c.02.2.15.4.42.56l5.69,3.29c.57.33,1.5.33,2.06,0l5.66-3.29c.28-.16.42-.38.42-.6Z"/>
            <path class="cls-2" d="M158.48,75.84v-.66h-.55s-5.58-3.22-5.58-3.22c-.57-.33-1.49-.33-2.06,0l-5.6,3.25h-.49v.63h0v.04h0c.02.2.15.4.42.56l5.69,3.29c.57.33,1.5.33,2.06,0l5.66-3.29c.28-.16.42-.38.42-.6Z"/>
            <path class="cls-2" d="M149.61,80.99v-.66h-.55s-5.58-3.22-5.58-3.22c-.57-.33-1.49-.33-2.06,0l-5.6,3.25h-.49v.63h0v.04h0c.02.2.15.4.42.56l5.69,3.29c.57.33,1.5.33,2.06,0l5.66-3.29c.28-.16.42-.38.42-.6Z"/>
            <path class="cls-2" d="M140.74,86.14v-.66h-.55s-5.58-3.22-5.58-3.22c-.57-.33-1.49-.33-2.06,0l-5.6,3.25h-.49v.63h0v.04h0c.02.2.15.4.42.56l5.69,3.29c.57.33,1.5.33,2.06,0l5.66-3.29c.28-.16.42-.38.42-.6Z"/>
            <path class="cls-2" d="M131.87,91.3v-.66h-.55s-5.58-3.22-5.58-3.22c-.57-.33-1.49-.33-2.06,0l-5.6,3.25h-.49v.63h0v.04h0c.02.2.15.4.42.56l5.69,3.29c.57.33,1.5.33,2.06,0l5.66-3.29c.28-.16.42-.38.42-.6Z"/>
            <path class="cls-2" d="M123.01,96.45v-.66h-.55s-5.58-3.22-5.58-3.22c-.57-.33-1.49-.33-2.06,0l-5.6,3.25h-.49v.63h0v.04h0c.02.2.16.4.42.56l5.69,3.29c.57.33,1.5.33,2.06,0l5.66-3.29c.28-.16.42-.38.42-.6Z"/>
            <path class="cls-2" d="M114.14,101.6v-.66h-.55s-5.58-3.22-5.58-3.22c-.57-.33-1.49-.33-2.06,0l-5.6,3.25h-.49v.63h0v.04h0c.02.2.15.4.42.56l5.69,3.29c.57.33,1.5.33,2.06,0l5.66-3.29c.28-.16.42-.38.42-.6Z"/>
            <path class="cls-2" d="M105.27,106.76v-.66h-.55s-5.58-3.22-5.58-3.22c-.57-.33-1.49-.33-2.06,0l-5.6,3.25h-.49v.63h0v.04h0c.02.2.16.4.42.56l5.69,3.29c.57.33,1.5.33,2.06,0l5.66-3.29c.28-.16.42-.38.42-.6Z"/>
            <path class="cls-2" d="M96.4,111.91v-.66h-.55s-5.58-3.22-5.58-3.22c-.57-.33-1.49-.33-2.06,0l-5.6,3.25h-.49v.63h0v.04h0c.02.2.15.4.42.56l5.69,3.29c.57.33,1.5.33,2.06,0l5.66-3.29c.28-.16.42-.38.42-.6Z"/>
            <path class="cls-2" d="M87.53,117.06v-.66h-.55s-5.58-3.22-5.58-3.22c-.57-.33-1.49-.33-2.06,0l-5.6,3.25h-.49v.63h0v.04h0c.02.2.15.4.42.56l5.69,3.29c.57.33,1.5.33,2.06,0l5.66-3.29c.28-.16.42-.38.42-.6Z"/>
            <path class="cls-2" d="M78.03,112.24v-.66h-.55s-5.58-3.22-5.58-3.22c-.57-.33-1.49-.33-2.06,0l-5.6,3.25h-.49v.63h0v.04h0c.02.2.15.4.42.56l5.69,3.29c.57.33,1.5.33,2.06,0l5.66-3.29c.28-.16.42-.38.42-.6Z"/>
            <path class="cls-2" d="M69.17,117.4v-.66h-.55s-5.58-3.22-5.58-3.22c-.57-.33-1.49-.33-2.06,0l-5.6,3.25h-.49v.63h0v.04h0c.02.2.15.4.42.56l5.69,3.29c.57.33,1.5.33,2.06,0l5.66-3.29c.28-.16.42-.38.42-.6Z"/>
            <path class="cls-2" d="M51.21,127.83v-.66h-.55s-5.58-3.22-5.58-3.22c-.57-.33-1.49-.33-2.06,0l-5.6,3.25h-.49v.63h0v.04h0c.02.2.16.4.42.56l5.69,3.29c.57.33,1.5.33,2.06,0l5.66-3.29c.28-.16.42-.38.42-.6Z"/>
            <path class="cls-2" d="M60.39,131.86l-5.58-3.22c-.57-.33-1.49-.33-2.06,0l-.79.46h0l-4.81,2.79h-.49v.28l-.31.18h-.49v.63h0v.04h0c.02.2.15.4.42.56l5.69,3.29c.57.33,1.5.33,2.06,0l6.45-3.75c.28-.16.42-.38.42-.6v-.66h-.55Z"/>
            <path class="cls-2" d="M78.67,122.22v-.66h-.55s-5.58-3.22-5.58-3.22c-.57-.33-1.49-.33-2.06,0l-5.6,3.25h-.49v.63h0v.04h0c.02.2.15.4.42.56l5.69,3.29c.57.33,1.5.33,2.06,0l5.66-3.29c.28-.16.42-.38.42-.6Z"/>
            <path class="cls-2" d="M69.8,127.37v-.66h-.55s-5.58-3.22-5.58-3.22c-.57-.33-1.49-.33-2.06,0l-5.6,3.25h-.49v.63h0v.04h0c.02.2.15.4.42.56l5.69,3.29c.57.33,1.5.33,2.06,0l5.66-3.29c.28-.16.42-.38.42-.6Z"/>
            <path class="cls-2" d="M158.65,86.21v-.66h-.55s-5.58-3.22-5.58-3.22c-.57-.33-1.49-.33-2.06,0l-5.6,3.25h-.49v.63h0v.04h0c.02.2.15.4.42.56l5.69,3.29c.57.33,1.5.33,2.06,0l5.66-3.29c.28-.16.42-.38.42-.6Z"/>
            <path class="cls-2" d="M149.79,91.36v-.66h-.55s-5.58-3.22-5.58-3.22c-.57-.33-1.49-.33-2.06,0l-5.6,3.25h-.49v.63h0v.04h0c.02.2.15.4.42.56l5.69,3.29c.57.33,1.5.33,2.06,0l5.66-3.29c.28-.16.42-.38.42-.6Z"/>
            <path class="cls-2" d="M140.92,96.52v-.66h-.55s-5.58-3.22-5.58-3.22c-.57-.33-1.49-.33-2.06,0l-5.6,3.25h-.49v.63h0v.04h0c.02.2.15.4.42.56l5.69,3.29c.57.33,1.5.33,2.06,0l5.66-3.29c.28-.16.42-.38.42-.6Z"/>
            <path class="cls-2" d="M132.05,101.67v-.66h-.55s-5.58-3.22-5.58-3.22c-.57-.33-1.49-.33-2.06,0l-5.6,3.25h-.49v.63h0v.04h0c.02.2.15.4.42.56l5.69,3.29c.57.33,1.5.33,2.06,0l5.66-3.29c.28-.16.42-.38.42-.6Z"/>
            <path class="cls-2" d="M123.18,106.83v-.66h-.55s-5.58-3.22-5.58-3.22c-.57-.33-1.49-.33-2.06,0l-5.6,3.25h-.49v.63h0v.04h0c.02.2.15.4.42.56l5.69,3.29c.57.33,1.5.33,2.06,0l5.66-3.29c.28-.16.42-.38.42-.6Z"/>
            <path class="cls-2" d="M114.32,111.98v-.66h-.55s-5.58-3.22-5.58-3.22c-.57-.33-1.49-.33-2.06,0l-5.6,3.25h-.49v.63h0v.04h0c.02.2.15.4.42.56l5.69,3.29c.57.33,1.5.33,2.06,0l5.66-3.29c.28-.16.42-.38.42-.6Z"/>
            <path class="cls-2" d="M105.45,117.13v-.66h-.55s-5.58-3.22-5.58-3.22c-.57-.33-1.49-.33-2.06,0l-5.6,3.25h-.49v.63h0v.04h0c.02.2.16.4.42.56l5.69,3.29c.57.33,1.5.33,2.06,0l5.66-3.29c.28-.16.42-.38.42-.6Z"/>
            <path class="cls-2" d="M96.58,122.29v-.66h-.55s-5.58-3.22-5.58-3.22c-.57-.33-1.49-.33-2.06,0l-5.6,3.25h-.49v.63h0v.04h0c.02.2.15.4.42.56l5.69,3.29c.57.33,1.5.33,2.06,0l5.66-3.29c.28-.16.42-.38.42-.6Z"/>
            <path class="cls-2" d="M87.71,127.44v-.66h-.55s-5.58-3.22-5.58-3.22c-.57-.33-1.49-.33-2.06,0l-5.6,3.25h-.49v.63h0v.04h0c.02.2.16.4.42.56l5.69,3.29c.57.33,1.5.33,2.06,0l5.66-3.29c.28-.16.42-.38.42-.6Z"/>
            <path class="cls-2" d="M163.26,94.01v-.66h-.55s-5.58-3.22-5.58-3.22c-.57-.33-1.49-.33-2.06,0l-5.6,3.25h-.49v.63h0v.04h0c.02.2.15.4.42.56l5.69,3.29c.57.33,1.5.33,2.06,0l5.66-3.29c.28-.16.42-.38.42-.6Z"/>
            <path class="cls-2" d="M154.39,99.16v-.66h-.55s-5.58-3.22-5.58-3.22c-.57-.33-1.49-.33-2.06,0l-5.6,3.25h-.49v.63h0v.04h0c.02.2.15.4.42.56l5.69,3.29c.57.33,1.5.33,2.06,0l5.66-3.29c.28-.16.42-.38.42-.6Z"/>
            <path class="cls-2" d="M145.53,104.32v-.66h-.55s-5.58-3.22-5.58-3.22c-.57-.33-1.49-.33-2.06,0l-5.6,3.25h-.49v.63h0v.04h0c.02.2.15.4.42.56l5.69,3.29c.57.33,1.5.33,2.06,0l5.66-3.29c.28-.16.42-.38.42-.6Z"/>
            <path class="cls-2" d="M136.66,109.47v-.66h-.55s-5.58-3.22-5.58-3.22c-.57-.33-1.49-.33-2.06,0l-5.6,3.25h-.49v.63h0v.04h0c.02.2.16.4.42.56l5.69,3.29c.57.33,1.5.33,2.06,0l5.66-3.29c.28-.16.42-.38.42-.6Z"/>
            <path class="cls-2" d="M127.79,114.62v-.66h-.55s-5.58-3.22-5.58-3.22c-.57-.33-1.49-.33-2.06,0l-5.6,3.25h-.49v.63h0v.04h0c.02.2.15.4.42.56l5.69,3.29c.57.33,1.5.33,2.06,0l5.66-3.29c.28-.16.42-.38.42-.6Z"/>
            <path class="cls-2" d="M118.92,119.78v-.66h-.55s-5.58-3.22-5.58-3.22c-.57-.33-1.49-.33-2.06,0l-5.6,3.25h-.49v.63h0v.04h0c.02.2.16.4.42.56l5.69,3.29c.57.33,1.5.33,2.06,0l5.66-3.29c.28-.16.42-.38.42-.6Z"/>
            <path class="cls-2" d="M110.06,124.93v-.66h-.55s-5.58-3.22-5.58-3.22c-.57-.33-1.49-.33-2.06,0l-5.6,3.25h-.49v.63h0v.04h0c.02.2.15.4.42.56l5.69,3.29c.57.33,1.5.33,2.06,0l5.66-3.29c.28-.16.42-.38.42-.6Z"/>
            <path class="cls-2" d="M101.19,130.08v-.66h-.55s-5.58-3.22-5.58-3.22c-.57-.33-1.49-.33-2.06,0l-5.6,3.25h-.49v.63h0v.04h0c.02.2.15.4.42.56l5.69,3.29c.57.33,1.5.33,2.06,0l5.66-3.29c.28-.16.42-.38.42-.6Z"/>
            <path class="cls-2" d="M92.32,135.24v-.66h-.55s-5.58-3.22-5.58-3.22c-.57-.33-1.49-.33-2.06,0l-5.6,3.25h-.49v.63h0v.04h0c.02.2.15.4.42.56l5.69,3.29c.57.33,1.5.33,2.06,0l5.66-3.29c.28-.16.42-.38.42-.6Z"/>
            <path class="cls-2" d="M186.07,91.1v-.66h-.55s-5.58-3.22-5.58-3.22c-.57-.33-1.49-.33-2.06,0l-5.6,3.25h-.49v.63h0v.04h0c.02.2.15.4.42.56l5.69,3.29c.57.33,1.5.33,2.06,0l5.66-3.29c.28-.16.42-.38.42-.6Z"/>
            <path class="cls-2" d="M177.2,96.25v-.66h-.55s-5.58-3.22-5.58-3.22c-.57-.33-1.49-.33-2.06,0l-5.6,3.25h-.49v.63h0v.04h0c.02.2.15.4.42.56l5.69,3.29c.57.33,1.5.33,2.06,0l5.66-3.29c.28-.16.42-.38.42-.6Z"/>
            <path class="cls-2" d="M168.33,101.4v-.66h-.55s-5.58-3.22-5.58-3.22c-.57-.33-1.49-.33-2.06,0l-5.6,3.25h-.49v.63h0v.04h0c.02.2.15.4.42.56l5.69,3.29c.57.33,1.5.33,2.06,0l5.66-3.29c.28-.16.42-.38.42-.6Z"/>
            <path class="cls-2" d="M159.46,106.56v-.66h-.55s-5.58-3.22-5.58-3.22c-.57-.33-1.49-.33-2.06,0l-5.6,3.25h-.49v.63h0v.04h0c.02.2.15.4.42.56l5.69,3.29c.57.33,1.5.33,2.06,0l5.66-3.29c.28-.16.42-.38.42-.6Z"/>
            <path class="cls-2" d="M150.6,111.71v-.66h-.55s-5.58-3.22-5.58-3.22c-.57-.33-1.49-.33-2.06,0l-5.6,3.25h-.49v.63h0v.04h0c.02.2.16.4.42.56l5.69,3.29c.57.33,1.5.33,2.06,0l5.66-3.29c.28-.16.42-.38.42-.6Z"/>
            <path class="cls-2" d="M141.73,116.86v-.66h-.55s-5.58-3.22-5.58-3.22c-.57-.33-1.49-.33-2.06,0l-5.6,3.25h-.49v.63h0v.04h0c.02.2.15.4.42.56l5.69,3.29c.57.33,1.5.33,2.06,0l5.66-3.29c.28-.16.42-.38.42-.6Z"/>
            <path class="cls-2" d="M132.86,122.02v-.66h-.55s-5.58-3.22-5.58-3.22c-.57-.33-1.49-.33-2.06,0l-5.6,3.25h-.49v.63h0v.04h0c.02.2.15.4.42.56l5.69,3.29c.57.33,1.5.33,2.06,0l5.66-3.29c.28-.16.42-.38.42-.6Z"/>
            <path class="cls-2" d="M123.99,127.17v-.66h-.55s-5.58-3.22-5.58-3.22c-.57-.33-1.49-.33-2.06,0l-5.6,3.25h-.49v.63h0v.04h0c.02.2.16.4.42.56l5.69,3.29c.57.33,1.5.33,2.06,0l5.66-3.29c.28-.16.42-.38.42-.6Z"/>
            <path class="cls-2" d="M115.12,132.32v-.66h-.55s-5.58-3.22-5.58-3.22c-.57-.33-1.49-.33-2.06,0l-5.6,3.25h-.49v.63h0v.04h0c.02.2.15.4.42.56l5.69,3.29c.57.33,1.5.33,2.06,0l5.66-3.29c.28-.16.42-.38.42-.6Z"/>
            <path class="cls-2" d="M106.26,137.48v-.66h-.55s-5.58-3.22-5.58-3.22c-.57-.33-1.49-.33-2.06,0l-5.6,3.25h-.49v.63h0v.04h0c.02.2.15.4.42.56l5.69,3.29c.57.33,1.5.33,2.06,0l5.66-3.29c.28-.16.42-.38.42-.6Z"/>
            <path class="cls-2" d="M97.39,142.63v-.66h-.55s-5.58-3.22-5.58-3.22c-.57-.33-1.49-.33-2.06,0l-5.6,3.25h-.49v.63h0v.04h0c.02.2.15.4.42.56l5.69,3.29c.57.33,1.5.33,2.06,0l5.66-3.29c.28-.16.42-.38.42-.6Z"/>
            <path class="cls-2" d="M88.52,147.08l-.56.03-5.57-3.21c-.57-.33-1.5-.33-2.06,0l-6.89,4-.56.03v.61s0,.05,0,.08v.03s0,0,0,0c.03.19.16.38.42.52l5.69,3.29c.57.33,1.5.33,2.07,0l7.03-4.08c.3-.17.43-.4.42-.63h0v-.67Z"/>
            <path class="cls-2" d="M132.39,80.63v-.64h-.54s-5.58-3.22-5.58-3.22c-.43-.25-1.06-.31-1.58-.18-.18.04-.34.1-.48.19l-5.6,3.25h-.49v.28l-39.4,22.9h0s-5.6,3.25-5.6,3.25h-.49v.63h0v.04h0s0,.01,0,.02c0,.04.01.08.03.12,0,.01.01.02.02.03.02.04.04.08.06.11.02.02.04.04.06.06.02.03.04.05.07.08.05.04.11.09.18.12h0s5.69,3.29,5.69,3.29c.14.08.31.14.48.19.18.04.36.06.55.06.37,0,.75-.08,1.03-.25l5.66-3.29h0s45.49-26.44,45.49-26.44c.29-.17.43-.4.42-.62Z"/>
            <path class="cls-2" d="M198.33,89.5s0-.01,0-.02v-.63l-.37.09s-.04-.03-.07-.05l-1.53-.88c-.57-.33-1.49-.33-2.06,0l-5.24,3.04-.84.2v.67c.02.21.16.41.43.57l1.53.88c.57.33,1.49.33,2.06,0l5.66-3.29c.28-.16.42-.37.42-.58h0Z"/>
            <path class="cls-2" d="M189.46,94.66v-.65l-.37.09s-.04-.03-.07-.05l-1.53-.88c-.57-.33-1.5-.33-2.06,0l-5.24,3.04-.84.2v.67c.02.21.16.41.43.57l1.53.88c.57.33,1.49.33,2.06,0l5.66-3.29c.28-.16.42-.37.42-.58h0Z"/>
            <path class="cls-2" d="M180.59,99.81s0-.01,0-.02v-.63l-.37.09s-.04-.03-.07-.05l-1.53-.88c-.57-.33-1.49-.33-2.06,0l-5.24,3.04-.84.2v.67c.02.21.16.41.43.57l1.53.88c.57.33,1.49.33,2.06,0l5.66-3.29c.28-.16.42-.37.42-.58h0Z"/>
            <path class="cls-2" d="M171.73,104.96s0-.01,0-.02v-.63l-.37.09s-.04-.03-.07-.05l-1.53-.88c-.57-.33-1.5-.33-2.06,0l-5.24,3.04-.84.2v.67c.02.21.16.41.43.57l1.53.88c.57.33,1.49.33,2.06,0l5.66-3.29c.28-.16.42-.37.42-.58h0Z"/>
            <path class="cls-2" d="M162.86,110.12v-.65l-.37.09s-.04-.03-.07-.05l-1.53-.88c-.57-.33-1.5-.33-2.06,0l-5.24,3.04-.84.2v.67c.02.21.16.41.43.57l1.53.88c.57.33,1.49.33,2.06,0l5.66-3.29c.28-.16.42-.37.42-.58h0Z"/>
            <path class="cls-2" d="M153.99,115.27s0-.01,0-.02v-.63l-.37.09s-.04-.03-.07-.05l-1.53-.88c-.57-.33-1.49-.33-2.06,0l-5.24,3.04-.84.2v.67c.02.21.16.41.43.57l1.53.88c.57.33,1.49.33,2.06,0l5.66-3.29c.28-.16.42-.37.42-.58h0Z"/>
            <path class="cls-2" d="M145.12,120.42v-.65l-.37.09s-.04-.03-.07-.05l-1.53-.88c-.57-.33-1.5-.33-2.06,0l-5.24,3.04-.84.2v.67c.02.21.16.41.43.57l1.53.88c.57.33,1.49.33,2.06,0l5.66-3.29c.28-.16.42-.37.42-.58h0Z"/>
            <path class="cls-2" d="M136.26,125.58s0-.01,0-.02v-.63l-.37.09s-.04-.03-.07-.05l-1.53-.88c-.57-.33-1.5-.33-2.06,0l-5.24,3.04-.84.2v.67c.02.21.16.41.43.57l1.53.88c.57.33,1.49.33,2.06,0l5.66-3.29c.28-.16.42-.37.42-.58h0Z"/>
            <path class="cls-2" d="M127.39,130.73s0-.01,0-.02v-.63l-.37.09s-.04-.03-.07-.05l-1.53-.88c-.57-.33-1.49-.33-2.06,0l-5.24,3.04-.84.2v.67c.02.21.16.41.43.57l1.53.88c.57.33,1.49.33,2.06,0l5.66-3.29c.28-.16.42-.37.42-.58h0Z"/>
            <path class="cls-2" d="M118.52,135.88v-.65l-.37.09s-.04-.03-.07-.05l-1.53-.88c-.57-.33-1.5-.33-2.06,0l-5.24,3.04-.84.2v.67c.02.21.16.41.43.57l1.53.88c.57.33,1.49.33,2.06,0l5.66-3.29c.28-.16.42-.37.42-.58h0Z"/>
            <path class="cls-2" d="M109.65,141.04s0-.01,0-.02v-.63l-.37.09s-.04-.03-.07-.05l-1.53-.88c-.57-.33-1.49-.33-2.06,0l-5.24,3.04-.84.2v.67c.02.21.16.41.43.57l1.53.88c.57.33,1.49.33,2.06,0l5.66-3.29c.28-.16.42-.37.42-.58h0Z"/>
            <path class="cls-2" d="M100.78,146.19s0-.01,0-.02v-.63l-.37.09s-.04-.03-.07-.05l-1.53-.88c-.57-.33-1.49-.33-2.06,0l-5.24,3.04-.84.2v.67c.02.21.16.41.43.57l1.53.88c.57.33,1.49.33,2.06,0l5.66-3.29c.28-.16.42-.37.42-.58h0Z"/>
            <path class="cls-2" d="M91.92,151.34v-.65l-.37.09s-.04-.03-.07-.05l-1.53-.88c-.57-.33-1.5-.33-2.06,0l-5.24,3.04-.84.2v.67c.02.21.16.41.43.57l1.53.88c.57.33,1.49.33,2.06,0l5.66-3.29c.28-.16.42-.37.42-.58h0Z"/>
            <path class="cls-2" d="M194.82,74.96l-.4.06s-.02-.01-.03-.02l-5.7-3.29c-.57-.33-1.49-.33-2.06,0l-10.52,6.11-.57.09v.59s0,.01,0,.02v.02h0c.01.21.15.41.42.57l5.7,3.29c.57.33,1.49.33,2.06,0l10.67-6.2c.28-.16.42-.38.42-.6h0v-.64Z"/>
            <path class="cls-2" d="M185.83,69.76l-.39.09s-.02-.02-.04-.03l-5.69-3.29c-.57-.33-1.5-.33-2.06,0l-14.77,8.58-.76.18v.63h0c0,.21.15.42.43.59l5.69,3.29c.57.33,1.49.33,2.06,0l15.11-8.78c.28-.17.43-.38.42-.6h0v-.66Z"/>
            <path class="cls-2" d="M176.79,64.53l-.39.09s-.02-.02-.04-.03l-5.69-3.29c-.57-.33-1.5-.33-2.06,0l-14.77,8.58-.76.18v.63h0c0,.21.15.42.43.59l5.69,3.29c.57.33,1.49.33,2.06,0l15.11-8.78c.28-.17.43-.38.42-.6h0v-.66Z"/>
            <path class="cls-2" d="M83.39,139.7l-.41.07s0,0-.02-.01l-5.7-3.29c-.57-.33-1.49-.33-2.06,0l-10.7,6.22-.6.1v.6h0v.04h0c.02.2.15.41.42.56l5.7,3.29c.57.33,1.49.33,2.06,0l10.88-6.32c.29-.17.43-.39.42-.6h0v-.65Z"/>
            <path class="cls-2" d="M78.41,131.99l-5.69-3.29c-.57-.33-1.5-.33-2.07,0l-15.32,8.9c-.57.33-.56.86.01,1.2l5.69,3.29c.57.33,1.49.33,2.06,0l15.32-8.9c.57-.33.57-.86,0-1.2h0Z"/>
            <path class="cls-2" d="M60.3,122.56v-.65l-.37.09s-.04-.03-.07-.05l-1.53-.88c-.57-.33-1.5-.33-2.06,0l-5.24,3.04-.84.2v.67c.02.21.16.41.43.57l1.53.88c.57.33,1.49.33,2.06,0l5.66-3.29c.28-.16.42-.37.42-.58h0Z"/>
            <path class="cls-2" d="M56.14,120.16s0-.01,0-.02v-.63l-.37.09s-.04-.03-.07-.05l-1.53-.88c-.57-.33-1.49-.33-2.06,0l-5.24,3.04-.84.2v.67c.02.21.16.41.43.57l1.53.88c.57.33,1.49.33,2.06,0l5.66-3.29c.28-.16.42-.37.42-.58h0Z"/>
          </g>
          <path class="cls-2" d="M208.57,83.52h0v-.68l-.41.12s-.01,0-.02-.01l-1.53-.88c-.57-.33-1.5-.33-2.06,0l-6.52,3.79-.93.26v.7h.01c.03.19.16.38.42.53l1.53.88c.57.33,1.5.33,2.06,0l7.03-4.09c.3-.17.43-.4.42-.62Z"/>
          <g>
            <path class="cls-2" d="M189.96,80.85l5.69,3.29c.57.33,1.49.33,2.06,0l5.66-3.29c.57-.33.57-.86,0-1.19l-5.69-3.29c-.57-.33-1.5-.33-2.06,0l-5.66,3.29c-.57.33-.56.86.01,1.2h0Z"/>
            <path class="cls-2" d="M181.1,86l5.69,3.29c.57.33,1.5.33,2.06,0l5.66-3.29c.57-.33.57-.86,0-1.19l-5.69-3.29c-.57-.33-1.5-.33-2.06,0l-5.66,3.29c-.57.33-.56.86.01,1.2h0Z"/>
            <path class="cls-2" d="M172.23,91.15l5.69,3.29c.57.33,1.49.33,2.06,0l5.66-3.29c.57-.33.57-.86,0-1.19l-5.69-3.29c-.57-.33-1.5-.33-2.06,0l-5.66,3.29c-.57.33-.56.86.01,1.2h0Z"/>
            <path class="cls-2" d="M163.36,96.31l5.69,3.29c.57.33,1.5.33,2.06,0l5.66-3.29c.57-.33.57-.86,0-1.19l-5.69-3.29c-.57-.33-1.5-.33-2.06,0l-5.66,3.29c-.57.33-.57.87,0,1.2h0Z"/>
            <path class="cls-2" d="M154.49,101.46l5.69,3.29c.57.33,1.49.33,2.06,0l5.66-3.29c.57-.33.57-.86,0-1.19l-5.69-3.29c-.57-.33-1.5-.33-2.06,0l-5.66,3.29c-.57.33-.57.87,0,1.2h0Z"/>
            <path class="cls-2" d="M145.63,106.61l5.69,3.29c.57.33,1.5.33,2.06,0l5.66-3.29c.57-.33.57-.86,0-1.19l-5.69-3.29c-.57-.33-1.5-.33-2.06,0l-5.66,3.29c-.57.33-.57.87,0,1.2h0Z"/>
            <path class="cls-2" d="M136.76,111.77l5.69,3.29c.57.33,1.49.33,2.06,0l5.66-3.29c.57-.33.57-.86,0-1.19l-5.69-3.29c-.57-.33-1.49-.33-2.06,0l-5.66,3.29c-.57.33-.57.87,0,1.2h0Z"/>
            <path class="cls-2" d="M127.89,116.92l5.69,3.29c.57.33,1.49.33,2.06,0l5.66-3.29c.57-.33.57-.86,0-1.19l-5.69-3.29c-.57-.33-1.5-.33-2.06,0l-5.66,3.29c-.57.33-.56.86.01,1.2h0Z"/>
            <path class="cls-2" d="M119.03,122.07l5.69,3.29c.57.33,1.49.33,2.06,0l5.66-3.29c.57-.33.57-.86,0-1.19l-5.69-3.29c-.57-.33-1.49-.33-2.06,0l-5.66,3.29c-.57.33-.56.86.01,1.2h0Z"/>
            <path class="cls-2" d="M110.16,127.23l5.69,3.29c.57.33,1.49.33,2.06,0l5.66-3.29c.57-.33.57-.86,0-1.19l-5.69-3.29c-.57-.33-1.5-.33-2.06,0l-5.66,3.29c-.57.33-.56.86.01,1.2h0Z"/>
            <path class="cls-3" d="M101.29,132.38l5.69,3.29c.57.33,1.49.33,2.06,0l5.66-3.29c.57-.33.57-.86,0-1.19l-5.69-3.29c-.57-.33-1.49-.33-2.06,0l-5.66,3.29c-.57.33-.56.86.01,1.2h0Z"/>
            <path class="cls-2" d="M158.29,88.91l5.69,3.29c.57.33,1.49.33,2.06,0l5.66-3.29c.57-.33.57-.86,0-1.19l-5.69-3.29c-.57-.33-1.5-.33-2.06,0l-5.66,3.29c-.57.33-.56.86.01,1.2h0Z"/>
            <path class="cls-2" d="M149.42,94.07l5.69,3.29c.57.33,1.5.33,2.06,0l5.66-3.29c.57-.33.57-.86,0-1.19l-5.69-3.29c-.57-.33-1.5-.33-2.06,0l-5.66,3.29c-.57.33-.56.86.01,1.2h0Z"/>
            <path class="cls-2" d="M140.56,99.22l5.69,3.29c.57.33,1.49.33,2.06,0l5.66-3.29c.57-.33.57-.86,0-1.19l-5.69-3.29c-.57-.33-1.5-.33-2.06,0l-5.66,3.29c-.57.33-.57.87,0,1.2h0Z"/>
            <path class="cls-2" d="M131.69,104.37l5.69,3.29c.57.33,1.5.33,2.06,0l5.66-3.29c.57-.33.57-.86,0-1.19l-5.69-3.29c-.57-.33-1.5-.33-2.06,0l-5.66,3.29c-.57.33-.57.87,0,1.2h0Z"/>
            <path class="cls-2" d="M122.82,109.53l5.69,3.29c.57.33,1.49.33,2.06,0l5.66-3.29c.57-.33.57-.86,0-1.19l-5.69-3.29c-.57-.33-1.5-.33-2.06,0l-5.66,3.29c-.57.33-.57.87,0,1.2h0Z"/>
            <path class="cls-2" d="M113.95,114.68l5.69,3.29c.57.33,1.5.33,2.06,0l5.66-3.29c.57-.33.57-.86,0-1.19l-5.69-3.29c-.57-.33-1.49-.33-2.06,0l-5.66,3.29c-.57.33-.57.87,0,1.2h0Z"/>
            <path class="cls-3" d="M105.09,119.83l5.69,3.29c.57.33,1.49.33,2.06,0l5.66-3.29c.57-.33.57-.86,0-1.19l-5.69-3.29c-.57-.33-1.5-.33-2.06,0l-5.66,3.29c-.57.33-.56.86.01,1.2h0Z"/>
            <path class="cls-3" d="M96.22,124.98l5.69,3.29c.57.33,1.49.33,2.06,0l5.66-3.29c.57-.33.57-.86,0-1.19l-5.69-3.29c-.57-.33-1.49-.33-2.06,0l-5.66,3.29c-.57.33-.56.86.01,1.2h0Z"/>
            <path class="cls-3" d="M87.35,130.14l5.69,3.29c.57.33,1.49.33,2.06,0l5.66-3.29c.57-.33.57-.86,0-1.19l-5.69-3.29c-.57-.33-1.5-.33-2.06,0l-5.66,3.29c-.57.33-.56.86.01,1.2h0Z"/>
            <path class="cls-3" d="M78.49,135.29l5.69,3.29c.57.33,1.49.33,2.06,0l5.66-3.29c.57-.33.57-.86,0-1.19l-5.69-3.29c-.57-.33-1.49-.33-2.06,0l-5.66,3.29c-.57.33-.56.86.01,1.2h0Z"/>
            <path class="cls-3" d="M92.42,137.53l5.69,3.29c.57.33,1.49.33,2.06,0l5.66-3.29c.57-.33.57-.86,0-1.2l-5.69-3.29c-.57-.33-1.5-.33-2.07,0l-5.66,3.29c-.57.33-.56.86.01,1.2h0Z"/>
            <path class="cls-3" d="M83.55,142.69l5.69,3.29c.57.33,1.49.33,2.06,0l5.66-3.29c.57-.33.57-.86,0-1.2l-5.69-3.29c-.57-.33-1.5-.33-2.07,0l-5.66,3.29c-.57.33-.56.86.01,1.2h0Z"/>
            <path class="cls-3" d="M154.02,60.1l5.69,3.29c.57.33,1.49.33,2.06,0l5.66-3.29c.57-.33.56-.86,0-1.19l-5.69-3.29c-.57-.33-1.5-.33-2.06,0l-5.66,3.29c-.57.33-.56.86.01,1.2h0Z"/>
            <path class="cls-3" d="M145.16,65.25l5.69,3.29c.57.33,1.49.33,2.06,0l5.66-3.29c.57-.33.56-.86,0-1.19l-5.69-3.29c-.57-.33-1.5-.33-2.06,0l-5.66,3.29c-.57.33-.56.86.01,1.2h0Z"/>
            <path class="cls-3" d="M136.29,70.4l5.69,3.29c.57.33,1.49.33,2.06,0l5.66-3.29c.57-.33.56-.86,0-1.19l-5.69-3.29c-.57-.33-1.5-.33-2.06,0l-5.66,3.29c-.57.33-.56.86.01,1.2h0Z"/>
            <path class="cls-3" d="M127.42,75.56l5.69,3.29c.57.33,1.49.33,2.06,0l5.66-3.29c.57-.33.56-.86,0-1.19l-5.69-3.29c-.57-.33-1.5-.33-2.06,0l-5.66,3.29c-.57.33-.57.87,0,1.2h0Z"/>
            <path class="cls-2" d="M167.16,83.76l5.69,3.29c.57.33,1.5.33,2.06,0l5.66-3.29c.57-.33.57-.86,0-1.19l-5.69-3.29c-.57-.33-1.5-.33-2.06,0l-5.66,3.29c-.57.33-.56.86.01,1.2h0Z"/>
            <path class="cls-3" d="M73.31,148.64l5.69,3.29c.57.33,1.49.33,2.06,0l7.03-4.08c.57-.33.57-.86,0-1.2l-5.69-3.29c-.57-.33-1.5-.33-2.07,0l-7.03,4.08c-.57.33-.57.87,0,1.2h0Z"/>
            <path class="cls-3" d="M73.06,107.15l5.69,3.29c.57.33,1.49.33,2.06,0l51.15-29.72c.57-.33.56-.86,0-1.19l-5.69-3.29c-.57-.33-1.5-.33-2.06,0l-51.15,29.72c-.57.33-.57.87,0,1.2h0Z"/>
            <path class="cls-2" d="M188.65,91.95l1.53.88c.57.33,1.5.33,2.06,0l5.66-3.29c.57-.33.56-.86-.01-1.2l-1.53-.88c-.57-.33-1.49-.33-2.06,0l-5.66,3.29c-.57.33-.56.86.01,1.2h0Z"/>
            <path class="cls-2" d="M179.79,97.1l1.53.88c.57.33,1.49.33,2.06,0l5.66-3.29c.57-.33.56-.86-.01-1.2l-1.53-.88c-.57-.33-1.49-.33-2.06,0l-5.66,3.29c-.57.33-.56.86.01,1.2h0Z"/>
            <path class="cls-2" d="M170.92,102.26l1.53.88c.57.33,1.5.33,2.06,0l5.66-3.29c.57-.33.57-.87,0-1.2l-1.53-.88c-.57-.33-1.5-.33-2.07,0l-5.66,3.29c-.57.33-.56.86.01,1.2h0Z"/>
            <path class="cls-2" d="M162.05,107.41l1.53.88c.57.33,1.49.33,2.06,0l5.66-3.29c.57-.33.57-.87,0-1.2l-1.53-.88c-.57-.33-1.5-.33-2.07,0l-5.66,3.29c-.57.33-.56.86.01,1.2h0Z"/>
            <path class="cls-2" d="M153.18,112.56l1.53.88c.57.33,1.5.33,2.06,0l5.66-3.29c.57-.33.57-.87,0-1.2l-1.53-.88c-.57-.33-1.5-.33-2.07,0l-5.66,3.29c-.57.33-.56.86.01,1.2h0Z"/>
            <path class="cls-2" d="M144.31,117.72l1.53.88c.57.33,1.5.33,2.06,0l5.66-3.29c.57-.33.57-.87,0-1.2l-1.53-.88c-.57-.33-1.5-.33-2.07,0l-5.66,3.29c-.57.33-.56.86.01,1.2h0Z"/>
            <path class="cls-2" d="M135.45,122.87l1.53.88c.57.33,1.5.33,2.06,0l5.66-3.29c.57-.33.57-.87,0-1.2l-1.53-.88c-.57-.33-1.5-.33-2.07,0l-5.66,3.29c-.57.33-.56.86.01,1.2h0Z"/>
            <path class="cls-2" d="M126.58,128.02l1.53.88c.57.33,1.5.33,2.06,0l5.66-3.29c.57-.33.56-.86-.01-1.2l-1.53-.88c-.57-.33-1.5-.33-2.06,0l-5.66,3.29c-.57.33-.56.86.01,1.2h0Z"/>
            <path class="cls-2" d="M117.71,133.18l1.53.88c.57.33,1.5.33,2.06,0l5.66-3.29c.57-.33.56-.86-.01-1.2l-1.53-.88c-.57-.33-1.5-.33-2.06,0l-5.66,3.29c-.57.33-.56.86.01,1.2h0Z"/>
            <path class="cls-2" d="M108.84,138.33l1.53.88c.57.33,1.5.33,2.06,0l5.66-3.29c.57-.33.56-.86-.01-1.2l-1.53-.88c-.57-.33-1.5-.33-2.06,0l-5.66,3.29c-.57.33-.56.86.01,1.2h0Z"/>
            <path class="cls-2" d="M99.98,143.48l1.53.88c.57.33,1.5.33,2.06,0l5.66-3.29c.57-.33.56-.86-.01-1.2l-1.53-.88c-.57-.33-1.5-.33-2.06,0l-5.66,3.29c-.57.33-.56.86.01,1.2h0Z"/>
            <path class="cls-3" d="M91.11,148.64l1.53.88c.57.33,1.5.33,2.06,0l5.66-3.29c.57-.33.56-.86-.01-1.2l-1.53-.88c-.57-.33-1.5-.33-2.06,0l-5.66,3.29c-.57.33-.56.86.01,1.2h0Z"/>
            <path class="cls-3" d="M82.24,153.79l1.53.88c.57.33,1.5.33,2.07,0l5.66-3.29c.57-.33.56-.86-.01-1.2l-1.53-.88c-.57-.33-1.5-.33-2.06,0l-5.66,3.29c-.57.33-.57.87,0,1.2h0Z"/>
            <path class="cls-2" d="M197.52,86.8l1.53.88c.57.33,1.49.33,2.06,0l7.03-4.09c.57-.33.56-.86-.01-1.2l-1.53-.88c-.57-.33-1.5-.33-2.06,0l-7.03,4.09c-.57.33-.56.86.01,1.2h0Z"/>
            <path class="cls-2" d="M175.97,78.57l5.7,3.29c.57.33,1.49.33,2.06,0l10.67-6.2c.57-.33.56-.86,0-1.19l-5.7-3.29c-.57-.33-1.5-.33-2.06,0l-10.67,6.2c-.57.33-.56.86,0,1.19h0Z"/>
            <path class="cls-2" d="M162.55,75.96l5.69,3.29c.57.33,1.5.33,2.06,0l15.11-8.78c.57-.33.56-.86-.01-1.2l-5.69-3.29c-.57-.33-1.49-.33-2.06,0l-15.11,8.78c-.57.33-.57.86,0,1.19h0Z"/>
            <path class="cls-2" d="M153.5,70.74l5.7,3.29c.57.33,1.5.33,2.06,0l15.11-8.78c.57-.33.56-.86,0-1.19l-5.7-3.29c-.57-.33-1.49-.33-2.06,0l-15.11,8.78c-.57.33-.56.86,0,1.19h0Z"/>
            <path class="cls-3" d="M64.33,143.45l5.7,3.29c.57.33,1.49.33,2.06,0l10.88-6.32c.57-.33.56-.86,0-1.19l-5.7-3.29c-.57-.33-1.49-.33-2.06,0l-10.88,6.32c-.57.33-.57.87,0,1.2h0Z"/>
            <path class="cls-3" d="M55.34,138.26l5.69,3.29c.57.33,1.5.33,2.07,0l15.32-8.9c.57-.33.56-.86-.01-1.2l-5.69-3.29c-.57-.33-1.49-.33-2.06,0l-15.32,8.9c-.57.33-.57.86,0,1.2h0Z"/>
            <path class="cls-3" d="M50.62,125.01l1.54.89c.57.33,1.49.33,2.06,0l5.66-3.29c.57-.33.56-.86,0-1.19l-1.54-.89c-.57-.33-1.49-.33-2.06,0l-5.66,3.29c-.57.33-.57.86,0,1.19h0Z"/>
            <path class="cls-3" d="M46.46,122.61l1.53.88c.57.33,1.49.33,2.06,0l5.66-3.29c.57-.33.56-.86-.01-1.2l-1.53-.88c-.57-.33-1.49-.33-2.06,0l-5.66,3.29c-.57.33-.56.86.01,1.2h0Z"/>
            <path class="cls-3" d="M82.74,122.34l5.69,3.29c.57.33,1.5.33,2.06,0l5.66-3.29c.57-.33.56-.86-.01-1.2l-5.69-3.29c-.57-.33-1.49-.33-2.06,0l-5.66,3.29c-.57.33-.57.86,0,1.19h0Z"/>
            <path class="cls-3" d="M73.87,127.49l5.69,3.29c.57.33,1.49.33,2.06,0l5.66-3.29c.57-.33.56-.86-.01-1.2l-5.69-3.29c-.57-.33-1.49-.33-2.06,0l-5.66,3.29c-.57.33-.57.86,0,1.19h0Z"/>
            <path class="cls-3" d="M73.7,117.12l5.7,3.29c.57.33,1.49.33,2.06,0l5.66-3.29c.57-.33.56-.86,0-1.19l-5.7-3.29c-.57-.33-1.49-.33-2.06,0l-5.66,3.29c-.57.33-.56.86,0,1.19h0Z"/>
            <path class="cls-3" d="M64.83,122.27l5.7,3.29c.57.33,1.49.33,2.06,0l5.66-3.29c.57-.33.56-.86,0-1.19l-5.7-3.29c-.57-.33-1.49-.33-2.06,0l-5.66,3.29c-.57.33-.56.86,0,1.19h0Z"/>
            <path class="cls-3" d="M55.96,127.42l5.7,3.29c.57.33,1.49.33,2.06,0l5.66-3.29c.57-.33.56-.86,0-1.19l-5.7-3.29c-.57-.33-1.49-.33-2.06,0l-5.66,3.29c-.57.33-.56.86,0,1.19h0Z"/>
            <path class="cls-3" d="M46.3,133.04l5.7,3.29c.57.33,1.49.33,2.06,0l6.45-3.75c.57-.33.56-.86,0-1.19l-5.7-3.29c-.57-.33-1.49-.33-2.06,0l-6.45,3.75c-.57.33-.57.87,0,1.2h0Z"/>
            <path class="cls-3" d="M100.48,112.03l5.69,3.29c.57.33,1.5.33,2.06,0l5.66-3.29c.57-.33.56-.86-.01-1.2l-5.69-3.29c-.57-.33-1.49-.33-2.06,0l-5.66,3.29c-.57.33-.57.86,0,1.19h0Z"/>
            <path class="cls-3" d="M91.61,117.19l5.69,3.29c.57.33,1.49.33,2.06,0l5.66-3.29c.57-.33.56-.86-.01-1.2l-5.69-3.29c-.57-.33-1.49-.33-2.06,0l-5.66,3.29c-.57.33-.57.86,0,1.19h0Z"/>
            <path class="cls-3" d="M91.43,106.81l5.7,3.29c.57.33,1.49.33,2.06,0l5.66-3.29c.57-.33.56-.86,0-1.19l-5.7-3.29c-.57-.33-1.49-.33-2.06,0l-5.66,3.29c-.57.33-.56.86,0,1.19h0Z"/>
            <path class="cls-3" d="M82.56,111.96l5.7,3.29c.57.33,1.49.33,2.06,0l5.66-3.29c.57-.33.56-.86,0-1.19l-5.7-3.29c-.57-.33-1.49-.33-2.06,0l-5.66,3.29c-.57.33-.56.86,0,1.19h0Z"/>
            <path class="cls-2" d="M118.21,101.73l5.69,3.29c.57.33,1.5.33,2.07,0l5.66-3.29c.57-.33.56-.86-.01-1.2l-5.69-3.29c-.57-.33-1.49-.33-2.06,0l-5.66,3.29c-.57.33-.57.86,0,1.2h0Z"/>
            <path class="cls-3" d="M109.34,106.88l5.69,3.29c.57.33,1.5.33,2.07,0l5.66-3.29c.57-.33.56-.86-.01-1.2l-5.69-3.29c-.57-.33-1.49-.33-2.06,0l-5.66,3.29c-.57.33-.57.86,0,1.2h0Z"/>
            <path class="cls-3" d="M109.16,96.5l5.7,3.29c.57.33,1.49.33,2.06,0l5.66-3.29c.57-.33.56-.86,0-1.19l-5.7-3.29c-.57-.33-1.49-.33-2.06,0l-5.66,3.29c-.57.33-.57.87,0,1.2h0Z"/>
            <path class="cls-3" d="M100.3,101.66l5.7,3.29c.57.33,1.5.33,2.06,0l5.66-3.29c.57-.33.56-.86,0-1.19l-5.7-3.29c-.57-.33-1.49-.33-2.06,0l-5.66,3.29c-.57.33-.57.87,0,1.2h0Z"/>
            <path class="cls-2" d="M135.94,91.42l5.69,3.29c.57.33,1.5.33,2.07,0l5.66-3.29c.57-.33.56-.86-.01-1.2l-5.69-3.29c-.57-.33-1.49-.33-2.06,0l-5.66,3.29c-.57.33-.57.86,0,1.2h0Z"/>
            <path class="cls-2" d="M127.08,96.57l5.69,3.29c.57.33,1.5.33,2.07,0l5.66-3.29c.57-.33.56-.86-.01-1.2l-5.69-3.29c-.57-.33-1.49-.33-2.06,0l-5.66,3.29c-.57.33-.57.86,0,1.2h0Z"/>
            <path class="cls-2" d="M126.9,86.2l5.7,3.29c.57.33,1.49.33,2.06,0l5.66-3.29c.57-.33.56-.86,0-1.19l-5.7-3.29c-.57-.33-1.49-.33-2.06,0l-5.66,3.29c-.57.33-.57.87,0,1.2h0Z"/>
            <path class="cls-3" d="M118.03,91.35l5.7,3.29c.57.33,1.5.33,2.06,0l5.66-3.29c.57-.33.56-.86,0-1.19l-5.7-3.29c-.57-.33-1.49-.33-2.06,0l-5.66,3.29c-.57.33-.57.87,0,1.2h0Z"/>
            <path class="cls-2" d="M153.68,81.11l5.69,3.29c.57.33,1.5.33,2.07,0l5.66-3.29c.57-.33.56-.86-.01-1.2l-5.69-3.29c-.57-.33-1.49-.33-2.06,0l-5.66,3.29c-.57.33-.57.86,0,1.2h0Z"/>
            <path class="cls-2" d="M144.81,86.27l5.69,3.29c.57.33,1.5.33,2.07,0l5.66-3.29c.57-.33.56-.86-.01-1.2l-5.69-3.29c-.57-.33-1.49-.33-2.06,0l-5.66,3.29c-.57.33-.57.86,0,1.2h0Z"/>
            <path class="cls-2" d="M144.63,75.89l5.7,3.29c.57.33,1.49.33,2.06,0l5.66-3.29c.57-.33.56-.86,0-1.19l-5.7-3.29c-.57-.33-1.49-.33-2.06,0l-5.66,3.29c-.57.33-.57.87,0,1.2h0Z"/>
            <path class="cls-2" d="M135.77,81.04l5.7,3.29c.57.33,1.5.33,2.06,0l5.66-3.29c.57-.33.56-.86,0-1.19l-5.7-3.29c-.57-.33-1.49-.33-2.06,0l-5.66,3.29c-.57.33-.57.87,0,1.2h0Z"/>
            <path class="cls-3" d="M64.19,112.3l5.69,3.29c.57.33,1.49.33,2.06,0l5.66-3.29c.57-.33.56-.86,0-1.19l-5.69-3.29c-.57-.33-1.49-.33-2.06,0l-5.66,3.29c-.57.33-.57.87,0,1.2h0Z"/>
            <path class="cls-3" d="M55.33,117.45l5.69,3.29c.57.33,1.49.33,2.06,0l5.66-3.29c.57-.33.56-.86,0-1.19l-5.69-3.29c-.57-.33-1.5-.33-2.06,0l-5.66,3.29c-.57.33-.56.86.01,1.2h0Z"/>
            <path class="cls-3" d="M37.37,127.89l5.69,3.29c.57.33,1.49.33,2.06,0l5.66-3.29c.57-.33.56-.86,0-1.19l-5.69-3.29c-.57-.33-1.5-.33-2.06,0l-5.66,3.29c-.57.33-.57.87,0,1.2h0Z"/>
          </g>
        </g>
        <path class="cls-7" d="M120.07,70.68l-23.15-13.37c-1.35-.78-3.55-.78-4.89,0l-50.86,29.55c-1.35.78-1.34,2.05.02,2.83l23.15,13.37c1.35.78,3.55.78,4.89,0l50.86-29.55c1.35-.78,1.34-2.05-.02-2.83h0Z"/>
      </g>
      <path class="cls-1" d="M263.9,2.92l-3.2-2.7s-.01,0-.02-.01h-.02s0-.01,0-.01c-.54-.41-1.7-.19-3.31.73l-124.78,72.04c-2.89,1.67-6.1,5.01-7.17,7.46l-35.58,81.1c-.35.79-.34,1.33-.05,1.59h0s.02.02.02.02h0s3.19,2.69,3.19,2.69l10.94-9.94,115.7-66.8c2.19-1.27,4.63-3.8,5.45-5.66l33.03-75.26,5.8-5.27Z"/>
      <path class="cls-8" d="M260.59,3.66l-124.78,72.04c-2.89,1.67-6.1,5.01-7.17,7.46l-35.58,81.1c-.81,1.86.31,2.34,2.5,1.07l127.3-73.5c2.19-1.27,4.63-3.8,5.45-5.66L263.88,5.07c1.07-2.45-.4-3.09-3.3-1.42h0Z"/>
      <path class="cls-5" d="M41.18,87.6l50.86-29.55c1.35-.78,3.54-.78,4.89,0l23.15,13.37c.52.3.84.68.96,1.07.2-.63-.12-1.3-.96-1.79l-23.15-13.37c-1.36-.78-3.55-.78-4.89,0l-50.86,29.55c-.83.48-1.14,1.15-.95,1.77.12-.38.44-.75.95-1.04Z"/>
    </g>
  </g>
</svg>