<?xml version="1.0" encoding="UTF-8"?>
<svg id="Layer_2" data-name="Layer 2" xmlns="http://www.w3.org/2000/svg" viewBox="0 0 419.53 401.8">
  <defs>
    <style>
      .cls-1 {
        fill: #5b80a7;
      }

      .cls-1, .cls-2, .cls-3 {
        stroke-width: 0px;
      }

      .cls-2 {
        fill: #fff;
      }

      .cls-3 {
        fill: #003663;
      }
    </style>
  </defs>
  <g id="Layer_1-2" data-name="Layer 1">
    <g>
      <path class="cls-3" d="M276.08,20.95h95.36v177.23h-95.36V20.95ZM161.02,198.18h95.36V20.95h-95.36v177.23ZM45.95,198.18h95.36V20.95H45.95v177.23ZM276.08,390.81h95.36v-177.23h-95.36v177.23ZM161.02,390.81h95.36v-177.23h-95.36v177.23ZM45.95,390.81h95.36v-177.23H45.95v177.23Z"/>
      <path class="cls-1" d="M419.53,0H0v25.65h15.52v376.15h40.4c0-44.27-25.96-126.15-25.96-126.15,0,0,60.16-141.29,65.65-249.99h226.18c5.49,108.7,65.65,249.99,65.65,249.99,0,0-25.96,81.88-25.96,126.15h40.4V25.65h17.66V0Z"/>
      <g>
        <path class="cls-2" d="M211.56,94.48c-7.62,0-13.79-6.18-13.79-13.79s6.18-13.79,13.79-13.79c1.15,0,2.27.16,3.34.42-3.29-3.1-7.71-5.01-12.58-5.01-10.15,0-18.37,8.23-18.37,18.37s8.23,18.37,18.37,18.37c4.87,0,9.29-1.91,12.58-5.01-1.07.27-2.19.42-3.34.42Z"/>
        <path class="cls-2" d="M93.44,231.89l-2.18,4.11c-.76,1.42-1.89,2.6-3.27,3.37l-3.98,2.25c-.15.09-.15.31,0,.4l3.98,2.25c1.38.78,2.52,1.95,3.27,3.37l2.18,4.11c.08.16.3.16.39,0l2.18-4.11c.76-1.42,1.89-2.6,3.27-3.37l3.98-2.25c.15-.09.15-.31,0-.4l-3.98-2.25c-1.38-.78-2.52-1.95-3.27-3.37l-2.18-4.11c-.08-.16-.3-.16-.39,0Z"/>
        <path class="cls-2" d="M121.82,287.87l-1.08,2.04c-.37.71-.94,1.29-1.62,1.67l-1.98,1.11c-.08.04-.08.16,0,.2l1.98,1.11c.69.39,1.25.97,1.62,1.67l1.08,2.04c.04.08.15.08.19,0l1.08-2.04c.37-.71.94-1.29,1.62-1.67l1.98-1.11c.08-.04.08-.16,0-.2l-1.98-1.11c-.69-.39-1.25-.97-1.62-1.67l-1.08-2.04c-.04-.08-.15-.08-.19,0Z"/>
        <path class="cls-2" d="M305.88,112.92l-1.08,2.04c-.37.71-.94,1.29-1.62,1.67l-1.98,1.11c-.08.04-.08.16,0,.2l1.98,1.11c.69.39,1.25.97,1.62,1.67l1.08,2.04c.04.08.15.08.19,0l1.08-2.04c.37-.71.94-1.29,1.62-1.67l1.98-1.11c.08-.04.08-.16,0-.2l-1.98-1.11c-.69-.39-1.25-.97-1.62-1.67l-1.08-2.04c-.04-.08-.15-.08-.19,0Z"/>
      </g>
    </g>
  </g>
</svg>