<?xml version="1.0" encoding="UTF-8"?>
<svg id="Layer_2" data-name="Layer 2" xmlns="http://www.w3.org/2000/svg" viewBox="0 0 112.63 101.68">
  <defs>
    <style>
      .cls-1, .cls-2 {
        stroke-width: 0px;
      }

      .cls-2 {
        fill: #fff;
      }
    </style>
  </defs>
  <g id="Layer_1-2" data-name="Layer 1">
    <g>
      <path class="cls-2" d="M54.21,1.77l5.69-1.45c3.52-.9,7.24.1,9.84,2.64l4.2,4.1c1.25,1.22,2.78,2.1,4.45,2.57l5.65,1.59c3.49.98,6.22,3.71,7.2,7.2l1.59,5.65c.47,1.68,1.36,3.21,2.57,4.45l4.1,4.2c2.53,2.6,3.53,6.33,2.64,9.84l-1.45,5.69c-.43,1.69-.43,3.45,0,5.14l1.45,5.69c.9,3.52-.1,7.24-2.64,9.84l-4.1,4.2c-1.22,1.25-2.1,2.78-2.57,4.45l-1.59,5.65c-.98,3.49-3.71,6.22-7.2,7.2l-5.65,1.59c-1.68.47-3.21,1.35-4.45,2.57l-4.2,4.1c-2.6,2.53-6.33,3.53-9.84,2.64l-5.69-1.45c-1.69-.43-3.45-.43-5.14,0l-5.69,1.45c-3.52.9-7.24-.1-9.84-2.64l-4.2-4.1c-1.25-1.22-2.78-2.1-4.45-2.57l-5.65-1.59c-3.49-.98-6.22-3.71-7.2-7.2l-1.59-5.65c-.47-1.68-1.35-3.21-2.57-4.45l-4.1-4.2c-2.53-2.6-3.53-6.33-2.64-9.84l1.45-5.69c.43-1.69.43-3.45,0-5.14l-1.45-5.69c-.9-3.52.1-7.24,2.64-9.84l4.1-4.2c1.22-1.25,2.1-2.78,2.57-4.45l1.59-5.65c.98-3.49,3.71-6.22,7.2-7.2l5.65-1.59c1.68-.47,3.21-1.35,4.45-2.57l4.2-4.1c2.6-2.53,6.33-3.53,9.84-2.64l5.69,1.45c1.69.43,3.45.43,5.14,0Z"/>
      <path class="cls-1" d="M71.4,73.72h-.11c-7.27-.01-12.66-1.21-15.23-1.93-1.27-.35-2.01-1.67-1.66-2.94.35-1.27,1.67-2.01,2.94-1.66,2.34.65,7.26,1.74,13.96,1.75h.1c6.38,0,11.14-.99,13.42-1.58,1.28-.33,2.58.43,2.91,1.71.33,1.27-.43,2.58-1.71,2.91-2.5.65-7.71,1.73-14.62,1.73Z"/>
      <path class="cls-1" d="M2.39,49.79c-.91,0-1.77-.52-2.17-1.4-.55-1.2-.02-2.61,1.18-3.16,2.36-1.08,7.35-3.06,14.21-4.25,7.16-1.24,12.68-.99,15.34-.73,1.31.13,2.27,1.3,2.14,2.61-.13,1.31-1.29,2.27-2.61,2.14-2.41-.24-7.44-.47-14.05.68-6.34,1.1-10.89,2.91-13.05,3.89-.32.15-.66.22-.99.22Z"/>
      <g>
        <path class="cls-1" d="M91.56,21.95h-40.73c-11.62,0-21.25,9.29-21.34,20.91-.09,11.71,9.38,21.23,21.07,21.23,5.81,0,11.07-2.35,14.88-6.15,3.09-3.09,8.16-3.07,11.25.01,3.87,3.86,9.23,6.22,15.14,6.14,11.03-.14,20.19-8.91,20.77-19.93.64-12.16-9.03-22.22-21.04-22.22Z"/>
        <g>
          <path class="cls-2" d="M50.07,45.65h-.07c-4.58,0-7.98-.94-9.6-1.49-.97-.33-1.49-1.39-1.16-2.36.33-.97,1.39-1.49,2.36-1.16,1.4.48,4.36,1.28,8.41,1.29h.06c3.85,0,6.72-.73,8.09-1.16.98-.31,2.02.23,2.33,1.21.31.98-.23,2.02-1.21,2.33-1.58.5-4.86,1.34-9.21,1.34Z"/>
          <path class="cls-2" d="M50.01,48.95c-1.03,0-1.86-.83-1.86-1.86v-3.3c0-1.03.83-1.86,1.86-1.86s1.86.83,1.86,1.86v3.3c0,1.03-.83,1.86-1.86,1.86Z"/>
          <path class="cls-2" d="M42.75,48.33c-.2,0-.4-.03-.59-.1-.97-.33-1.49-1.38-1.17-2.35l1.05-3.13c.33-.97,1.38-1.49,2.35-1.17.97.33,1.49,1.38,1.17,2.35l-1.05,3.13c-.26.78-.98,1.27-1.76,1.27Z"/>
          <path class="cls-2" d="M56.96,48.33c-.78,0-1.5-.49-1.76-1.27l-1.05-3.13c-.33-.97.2-2.02,1.17-2.35.97-.33,2.02.2,2.35,1.17l1.05,3.13c.33.97-.2,2.02-1.17,2.35-.2.07-.4.1-.59.1Z"/>
        </g>
        <g>
          <path class="cls-2" d="M92.31,45.65h-.07c-4.58,0-7.98-.94-9.6-1.49-.97-.33-1.49-1.39-1.16-2.36.33-.97,1.39-1.49,2.36-1.16,1.4.48,4.36,1.28,8.41,1.29h.06c3.85,0,6.72-.73,8.09-1.16.98-.31,2.02.23,2.33,1.21.31.98-.23,2.02-1.21,2.33-1.58.5-4.86,1.34-9.21,1.34Z"/>
          <path class="cls-2" d="M92.25,48.95c-1.03,0-1.86-.83-1.86-1.86v-3.3c0-1.03.83-1.86,1.86-1.86s1.86.83,1.86,1.86v3.3c0,1.03-.83,1.86-1.86,1.86Z"/>
          <path class="cls-2" d="M85,48.33c-.2,0-.4-.03-.59-.1-.97-.33-1.49-1.38-1.17-2.35l1.05-3.13c.33-.97,1.38-1.49,2.35-1.17.97.33,1.49,1.38,1.17,2.35l-1.05,3.13c-.26.78-.98,1.27-1.76,1.27Z"/>
          <path class="cls-2" d="M99.21,48.33c-.78,0-1.5-.49-1.76-1.27l-1.05-3.13c-.33-.97.2-2.02,1.17-2.35.97-.33,2.02.2,2.35,1.17l1.05,3.13c.33.97-.2,2.02-1.17,2.35-.2.07-.4.1-.59.1Z"/>
        </g>
      </g>
    </g>
  </g>
</svg>