<?xml version="1.0" encoding="UTF-8"?>
<svg id="title" xmlns="http://www.w3.org/2000/svg" viewBox="0 0 546.2 568.19">
  <defs>
    <style>
      @font-face {
        font-family: 'Cafe24 Moyamoya';
        src: url('https://cdn.jsdelivr.net/gh/projectnoonnu/noonfonts_231029@1.1/Cafe24Moyamoya-Regular-v1.0.woff2') format('woff2');
        font-weight: normal;
        font-style: normal;
      }
      
      .cls-1 {
        font-family: Cafe24Moyamoya-OTF-Regular-KSCpc-EUC-H, 'Cafe24 Moyamoya';
        font-size: 34.24px;
        isolation: isolate;
      }

      .cls-1, .cls-2 {
        fill: #fff;
      }

      .cls-3 {
        letter-spacing: -.02em;
      }

      .cls-4 {
        letter-spacing: 0em;
      }

      .cls-5, .cls-2 {
        stroke-width: 0px;
      }
    </style>
  </defs>
  <g id="section">
    <g>
      <g>
        <text class="cls-1" transform="translate(4.92 523.63)"><tspan x="0" y="0">LAZY DEVE</tspan><tspan class="cls-3" x="185.85" y="0">L</tspan><tspan class="cls-4" x="204.44" y="0">OPER</tspan></text>
        <text class="cls-1" transform="translate(4.92 556.38)"><tspan x="0" y="0">CONFERENCE</tspan></text>
      </g>
      <path class="cls-2" d="M0,29.93V6.33h56.2v36.1h13.4V2.43h26.1v118.9h-26.1v-52.4h-13.4v52.5h-27.7V29.93H0ZM104.5,2.43h26.2v118.9h-26.2V2.43Z"/>
      <path class="cls-2" d="M282.9,70.53h125.2v20.3h-125.2v-20.3ZM317.4,103.63h86.1v21.5h-115.7v-30.6h29.7l-.1,9.1h0ZM288.8,26.63h83.6v-4.9h-83.6V2.63h113.3v40.1h-83v4.9h83.5v18h-113.8V26.63h0Z"/>
      <path class="cls-2" d="M0,185.13h56.2v115.1h-27.7v-91.5H0v-23.6h0ZM94,248.83v51.4h-26v-118.9h26v41h10.4v-41h26.2v118.9h-26.2v-51.4h-10.4Z"/>
      <path class="cls-2" d="M147.1,182.03h28.6v35.2h21.8v-35.2h28.5v54.2h-78.8v-54.2h-.1ZM155.4,281.43l97-16h-97v-20.6h111.2v22.8l-85.6,14.2h86.6v22.8h-112.2v-23.2h0ZM179.7,199.33l14-5.1v7.4l-14,5.1v-7.4ZM281.4,195.93v23.4h-14.8v18.6h-29.5v-56.6h29.5v14.6h14.8Z"/>
      <path class="cls-2" d="M328.3,223.93h28.3l12.4,75h-28.6l-12.2-74.7-12.2,74.7h-30.2l16.4-92.1h-18.2v-21.7h83.2v21.6h-36.2l-2.7,17.2h0ZM380.3,181.33h29.4v45.3h13.3v24.9h-13.3v48.7h-29.4v-118.9h0Z"/>
      <path class="cls-2" d="M43.2,418.83H4.9v-20.1h38.3v-11.8H5.5v-23.5h67.8v71.4h-30.1v-16h0ZM12.4,440.73h30.2v19.2h83.3v23.5H12.4v-42.7ZM79.3,386.03h15.8v-25.9h29.4v80.3h-29.4v-27.9h-15.8v-26.5h0Z"/>
      <path class="cls-2" d="M152.5,387.83h-9.1v-23.7h83.5v23.7h-46.4l.4,49.6,10.9-45h27.7l-1.8,62.7h10.1v23.7h-84.5v-23.7h46.9l2.1-48.9-10.3,42.4h-28l-1.5-60.8h0ZM223,407.13h15.8v-47h29.5v118.9h-29.5v-45.5h-15.8v-26.4h0Z"/>
      <path class="cls-2" d="M310.6,411.53v8.2h47.7v22.2h-76.4v-50.7h43.2v-7.9h-43.2v-20.7h72v48.9h-43.3ZM289.6,448.23h29.5v12.4h83.3v23.2h-112.8v-35.6ZM359.2,385.53h13.1v-25.4h29.4v83.8h-29.4v-34.4h-13.1v-24h0Z"/>
      <path class="cls-2" d="M509,429.63l-25.8-59-25.6,59h-37.3l30.9-66.8h64.2l30.8,66.8h-37.2ZM420.7,455.53h125.2v23.5h-125.2v-23.5h0Z"/>
      <g>
        <path class="cls-2" d="M213,1.93l5.7-1.5c3.5-.9,7.2.1,9.8,2.6l4.2,4.1c1.2,1.2,2.8,2.1,4.4,2.6l5.6,1.6c3.5,1,6.2,3.7,7.2,7.2l1.6,5.6c.5,1.7,1.4,3.2,2.6,4.4l4.1,4.2c2.5,2.6,3.5,6.3,2.6,9.8l-1.5,5.7c-.4,1.7-.4,3.5,0,5.1l1.5,5.7c.9,3.5-.1,7.2-2.6,9.8l-4.1,4.2c-1.2,1.2-2.1,2.8-2.6,4.4l-1.6,5.7c-1,3.5-3.7,6.2-7.2,7.2l-5.6,1.6c-1.7.5-3.2,1.3-4.4,2.6l-4.2,4.1c-2.6,2.5-6.3,3.5-9.8,2.6l-5.7-1.4c-1.7-.4-3.4-.4-5.1,0l-5.7,1.4c-3.5.9-7.2-.1-9.8-2.6l-4.2-4.1c-1.2-1.2-2.8-2.1-4.4-2.6l-5.6-1.6c-3.5-1-6.2-3.7-7.2-7.2l-1.6-5.7c-.5-1.7-1.4-3.2-2.6-4.4l-4.1-4.2c-2.5-2.6-3.5-6.3-2.6-9.8l1.4-5.7c.4-1.7.4-3.5,0-5.1l-1.4-5.7c-.9-3.5.1-7.2,2.6-9.8l4.1-4.2c1.2-1.2,2.1-2.8,2.6-4.5l1.6-5.6c1-3.5,3.7-6.2,7.2-7.2l5.6-1.6c1.7-.5,3.2-1.4,4.4-2.6l4.2-4.1c2.6-2.5,6.3-3.5,9.8-2.6l5.7,1.5c1.6.5,3.4.5,5.1.1Z"/>
        <path class="cls-5" d="M230.2,73.83h-.1c-7.3,0-12.7-1.2-15.2-1.9-1.3-.3-2-1.7-1.7-2.9.4-1.3,1.7-2,2.9-1.7,2.3.7,7.3,1.7,14,1.8h.1c6.4,0,11.1-1,13.4-1.6,1.3-.3,2.6.4,2.9,1.7.3,1.3-.4,2.6-1.7,2.9-2.5.6-7.7,1.7-14.6,1.7h0Z"/>
        <path class="cls-5" d="M161.1,49.93c-.9,0-1.8-.5-2.2-1.4-.6-1.2,0-2.6,1.2-3.2,2.4-1.1,7.4-3.1,14.2-4.2,7.2-1.2,12.7-1,15.3-.7,1.3.1,2.3,1.3,2.1,2.6s-1.3,2.3-2.6,2.1c-2.4-.2-7.4-.5-14.1.7-6.3,1.1-10.9,2.9-13.1,3.9-.1.1-.4.2-.8.2h0Z"/>
        <g>
          <path class="cls-5" d="M250.3,22.13h-40.7c-11.6,0-21.2,9.3-21.3,20.9-.1,11.7,9.4,21.2,21.1,21.2,5.8,0,11.1-2.3,14.9-6.2,3.1-3.1,8.2-3.1,11.2,0,3.9,3.9,9.2,6.2,15.1,6.1,11-.1,20.2-8.9,20.8-19.9.6-12.1-9.1-22.2-21.1-22.1,0-.1,0,0,0,0Z"/>
          <g>
            <path class="cls-2" d="M208.8,45.83h0c-4.7,0-8.1-.9-9.7-1.5-1-.3-1.5-1.4-1.2-2.4s1.4-1.5,2.4-1.2c1.4.5,4.4,1.3,8.4,1.3h.1c3.9,0,6.7-.7,8.1-1.2,1-.3,2,.2,2.3,1.2s-.2,2-1.2,2.3c-1.5.6-4.8,1.5-9.2,1.5h0Z"/>
            <path class="cls-2" d="M208.8,49.13c-1,0-1.9-.8-1.9-1.9v-3.3c0-1,.8-1.9,1.9-1.9s1.9.8,1.9,1.9v3.3c-.1,1-.9,1.9-1.9,1.9Z"/>
            <path class="cls-2" d="M201.5,48.43c-.2,0-.4,0-.6-.1-1-.3-1.5-1.4-1.2-2.3l1.1-3.1c.3-1,1.4-1.5,2.4-1.2s1.5,1.4,1.2,2.3l-1.1,3.1c-.3.8-1,1.3-1.8,1.3h0Z"/>
            <path class="cls-2" d="M215.7,48.43c-.8,0-1.5-.5-1.8-1.3l-1.1-3.1c-.3-1,.2-2,1.2-2.3s2,.2,2.4,1.2l1.1,3.1c.3,1-.2,2-1.2,2.3-.2.1-.4.1-.6.1h0Z"/>
          </g>
          <g>
            <path class="cls-2" d="M251.1,45.83h0c-4.7,0-8.1-.9-9.7-1.5-1-.3-1.5-1.4-1.2-2.4s1.4-1.5,2.4-1.2c1.4.5,4.4,1.3,8.4,1.3h.1c3.9,0,6.7-.7,8.1-1.2,1-.3,2,.2,2.3,1.2s-.2,2-1.2,2.3c-1.6.6-4.9,1.5-9.2,1.5h0Z"/>
            <path class="cls-2" d="M251,49.13c-1,0-1.9-.8-1.9-1.9v-3.3c0-1,.8-1.9,1.9-1.9s1.9.8,1.9,1.9v3.3c0,1-.9,1.9-1.9,1.9Z"/>
            <path class="cls-2" d="M243.8,48.43c-.2,0-.4,0-.6-.1-1-.3-1.5-1.4-1.2-2.3l1.1-3.1c.3-1,1.4-1.5,2.4-1.2s1.5,1.4,1.2,2.3l-1.1,3.1c-.3.8-1.1,1.3-1.8,1.3h0Z"/>
            <path class="cls-2" d="M258,48.43c-.8,0-1.5-.5-1.8-1.3l-1.1-3.1c-.3-1,.2-2,1.2-2.3,1-.3,2,.2,2.4,1.2l1,3.1c.3,1-.2,2-1.2,2.3-.2.1-.4.1-.5.1h0Z"/>
          </g>
        </g>
      </g>
      <path class="cls-2" d="M237.7,97.83c-.4.2-.8.5-1.2.8l-4.2,4.1c-3.9,3.8-9.7,5.4-15,4l-5.7-1.4c-.8-.2-1.6-.2-2.4,0l-5.7,1.4c-1.3.3-2.6.5-3.9.5-4.1,0-8.2-1.6-11.1-4.5l-4.2-4.1c-.4-.3-.8-.6-1.2-.8h-36.6v23.6h125v-23.6h-33.8Z"/>
    </g>
  </g>
</svg>