<?xml version="1.0" encoding="UTF-8"?>
<svg id="Layer_2" data-name="Layer 2" xmlns="http://www.w3.org/2000/svg" viewBox="0 0 552.08 568.07">
  <defs>
    <style>
      @font-face {
        font-family: 'Cafe24 Moyamoya';
        src: url('https://cdn.jsdelivr.net/gh/projectnoonnu/noonfonts_231029@1.1/Cafe24Moyamoya-Regular-v1.0.woff2') format('woff2');
        font-weight: normal;
        font-style: normal;
      }

      .cls-1 {
        letter-spacing: -.03em;
      }

      .cls-2, .cls-3 {
        stroke-width: 0px;
      }

      .cls-3, .cls-4 {
        fill: #fff;
      }

      .cls-4 {
        font-family: Cafe24Moyamoya-OTF-Face-KSCpc-EUC-H, 'Cafe24 Moyamoya';
        font-size: 34.24px;
      }
    </style>
  </defs>
  <g id="Layer_1-2" data-name="Layer 1">
    <g>
      <text class="cls-4" transform="translate(10 556.25)"><tspan x="0" y="0">LAZY DEVE</tspan><tspan class="cls-1" x="185.84" y="0">L</tspan><tspan x="204.43" y="0">OPER CONFERENCE</tspan></text>
      <path class="cls-3" d="M0,29.75V6.2h56.19v36.07h13.41V2.33h26.08v118.93h-26.08v-52.46h-13.41v52.46h-27.72V29.75H0ZM104.47,2.33h26.23v118.93h-26.23V2.33Z"/>
      <path class="cls-3" d="M282.87,70.44h125.19v20.27h-125.19v-20.27ZM317.44,103.52h86.14v21.46h-115.8v-30.55h29.66v9.09ZM288.83,26.47h83.61v-4.92h-83.61V2.48h113.27v40.09h-83.01v4.92h83.46v18.03h-113.71V26.47Z"/>
      <path class="cls-3" d="M0,185.04h56.19v115.06h-27.72v-91.51H0v-23.55ZM94.04,248.68v51.42h-26.08v-118.93h26.08v40.98h10.43v-40.98h26.23v118.93h-26.23v-51.42h-10.43Z"/>
      <path class="cls-3" d="M147.1,181.91h28.61v35.17h21.76v-35.17h28.47v54.25h-78.84v-54.25ZM155.44,281.32l97.02-15.95h-97.02v-20.57h111.18v22.8l-85.55,14.16h86.59v22.8h-112.22v-23.25ZM179.74,199.2l14.01-5.07v7.45l-14.01,5.07v-7.45ZM281.38,195.77v23.4h-14.75v18.63h-29.51v-56.63h29.51v14.6h14.75Z"/>
      <path class="cls-3" d="M328.32,223.79h28.32l12.37,74.96h-28.61l-12.22-74.67-12.22,74.67h-30.25l16.39-92.1h-18.18v-21.61h83.16v21.61h-36.07l-2.68,17.14ZM380.34,181.17h29.36v45.31h13.26v24.89h-13.26v48.73h-29.36v-118.93Z"/>
      <path class="cls-3" d="M43.22,418.73H4.92v-20.12h38.3v-11.77H5.51v-23.55h67.81v71.39h-30.11v-15.95ZM12.37,440.64h30.25v19.23h83.31v23.55H12.37v-42.77ZM79.29,385.94h15.8v-25.93h29.36v80.33h-29.36v-27.87h-15.8v-26.53Z"/>
      <path class="cls-3" d="M152.46,387.73h-9.09v-23.7h83.46v23.7h-46.35l.45,49.63,10.88-45.01h27.72l-1.79,62.74h10.13v23.7h-84.5v-23.7h46.95l2.09-48.88-10.43,42.33h-28.02l-1.49-60.81ZM222.96,406.96h15.8v-46.95h29.51v118.93h-29.51v-45.45h-15.8v-26.53Z"/>
      <path class="cls-3" d="M310.59,411.43v8.2h47.69v22.21h-76.45v-50.67h43.22v-7.9h-43.22v-20.72h71.98v48.88h-43.22ZM289.57,448.09h29.51v12.37h83.31v23.25h-112.82v-35.62ZM359.17,385.35h13.12v-25.34h29.36v83.76h-29.36v-34.43h-13.12v-23.99Z"/>
      <path class="cls-3" d="M508.95,429.46l-25.78-59.02-25.63,59.02h-37.26l30.85-66.77h64.23l30.85,66.77h-37.26ZM420.73,455.39h125.19v23.55h-125.19v-23.55Z"/>
      <g>
        <path class="cls-3" d="M212.96,1.77l5.69-1.45c3.52-.9,7.24.1,9.84,2.64l4.2,4.1c1.25,1.22,2.78,2.1,4.45,2.57l5.65,1.59c3.49.98,6.22,3.71,7.2,7.2l1.59,5.65c.47,1.68,1.36,3.21,2.57,4.45l4.1,4.2c2.53,2.6,3.53,6.33,2.64,9.84l-1.45,5.69c-.43,1.69-.43,3.45,0,5.14l1.45,5.69c.9,3.52-.1,7.24-2.64,9.84l-4.1,4.2c-1.22,1.25-2.1,2.78-2.57,4.45l-1.59,5.65c-.98,3.49-3.71,6.22-7.2,7.2l-5.65,1.59c-1.68.47-3.21,1.35-4.45,2.57l-4.2,4.1c-2.6,2.53-6.33,3.53-9.84,2.64l-5.69-1.45c-1.69-.43-3.45-.43-5.14,0l-5.69,1.45c-3.52.9-7.24-.1-9.84-2.64l-4.2-4.1c-1.25-1.22-2.78-2.1-4.45-2.57l-5.65-1.59c-3.49-.98-6.22-3.71-7.2-7.2l-1.59-5.65c-.47-1.68-1.35-3.21-2.57-4.45l-4.1-4.2c-2.53-2.6-3.53-6.33-2.64-9.84l1.45-5.69c.43-1.69.43-3.45,0-5.14l-1.45-5.69c-.9-3.52.1-7.24,2.64-9.84l4.1-4.2c1.22-1.25,2.1-2.78,2.57-4.45l1.59-5.65c.98-3.49,3.71-6.22,7.2-7.2l5.65-1.59c1.68-.47,3.21-1.35,4.45-2.57l4.2-4.1c2.6-2.53,6.33-3.53,9.84-2.64l5.69,1.45c1.69.43,3.45.43,5.14,0Z"/>
        <path class="cls-2" d="M230.16,73.72h-.11c-7.27-.01-12.66-1.21-15.23-1.93-1.27-.35-2.01-1.67-1.66-2.94.35-1.27,1.67-2.01,2.94-1.66,2.34.65,7.26,1.74,13.96,1.75h.1c6.38,0,11.14-.99,13.42-1.58,1.28-.33,2.58.43,2.91,1.71.33,1.27-.43,2.58-1.71,2.91-2.5.65-7.71,1.73-14.62,1.73Z"/>
        <path class="cls-2" d="M161.14,49.79c-.91,0-1.77-.52-2.17-1.4-.55-1.2-.02-2.61,1.18-3.16,2.36-1.08,7.35-3.06,14.21-4.25,7.16-1.24,12.68-.99,15.34-.73,1.31.13,2.27,1.3,2.14,2.61-.13,1.31-1.29,2.27-2.61,2.14-2.41-.24-7.44-.47-14.05.68-6.34,1.1-10.89,2.91-13.05,3.89-.32.15-.66.22-.99.22Z"/>
        <g>
          <path class="cls-2" d="M250.32,21.95h-40.73c-11.62,0-21.25,9.29-21.34,20.91-.09,11.71,9.38,21.23,21.07,21.23,5.81,0,11.07-2.35,14.88-6.15,3.09-3.09,8.16-3.07,11.25.01,3.87,3.86,9.23,6.22,15.14,6.14,11.03-.14,20.19-8.91,20.77-19.93.64-12.16-9.03-22.22-21.04-22.22Z"/>
          <g>
            <path class="cls-3" d="M208.83,45.65h-.07c-4.58,0-7.98-.94-9.6-1.49-.97-.33-1.49-1.39-1.16-2.36.33-.97,1.39-1.49,2.36-1.16,1.4.48,4.36,1.28,8.41,1.29h.06c3.85,0,6.72-.73,8.09-1.16.98-.31,2.02.23,2.33,1.21.31.98-.23,2.02-1.21,2.33-1.58.5-4.86,1.34-9.21,1.34Z"/>
            <path class="cls-3" d="M208.76,48.95c-1.03,0-1.86-.83-1.86-1.86v-3.3c0-1.03.83-1.86,1.86-1.86s1.86.83,1.86,1.86v3.3c0,1.03-.83,1.86-1.86,1.86Z"/>
            <path class="cls-3" d="M201.51,48.33c-.2,0-.4-.03-.59-.1-.97-.33-1.49-1.38-1.17-2.35l1.05-3.13c.33-.97,1.38-1.49,2.35-1.17.97.33,1.49,1.38,1.17,2.35l-1.05,3.13c-.26.78-.98,1.27-1.76,1.27Z"/>
            <path class="cls-3" d="M215.72,48.33c-.78,0-1.5-.49-1.76-1.27l-1.05-3.13c-.33-.97.2-2.02,1.17-2.35.97-.33,2.02.2,2.35,1.17l1.05,3.13c.33.97-.2,2.02-1.17,2.35-.2.07-.4.1-.59.1Z"/>
          </g>
          <g>
            <path class="cls-3" d="M251.07,45.65h-.07c-4.58,0-7.98-.94-9.6-1.49-.97-.33-1.49-1.39-1.16-2.36.33-.97,1.39-1.49,2.36-1.16,1.4.48,4.36,1.28,8.41,1.29h.06c3.85,0,6.72-.73,8.09-1.16.98-.31,2.02.23,2.33,1.21.31.98-.23,2.02-1.21,2.33-1.58.5-4.86,1.34-9.21,1.34Z"/>
            <path class="cls-3" d="M251,48.95c-1.03,0-1.86-.83-1.86-1.86v-3.3c0-1.03.83-1.86,1.86-1.86s1.86.83,1.86,1.86v3.3c0,1.03-.83,1.86-1.86,1.86Z"/>
            <path class="cls-3" d="M243.75,48.33c-.2,0-.4-.03-.59-.1-.97-.33-1.49-1.38-1.17-2.35l1.05-3.13c.33-.97,1.38-1.49,2.35-1.17.97.33,1.49,1.38,1.17,2.35l-1.05,3.13c-.26.78-.98,1.27-1.76,1.27Z"/>
            <path class="cls-3" d="M257.96,48.33c-.78,0-1.5-.49-1.76-1.27l-1.05-3.13c-.33-.97.2-2.02,1.17-2.35.97-.33,2.02.2,2.35,1.17l1.05,3.13c.33.97-.2,2.02-1.17,2.35-.2.07-.4.1-.59.1Z"/>
          </g>
        </g>
      </g>
      <path class="cls-3" d="M237.72,97.71c-.43.22-.83.5-1.18.84l-4.2,4.1c-3.94,3.85-9.7,5.39-15.04,4.03l-5.69-1.45c-.79-.2-1.63-.2-2.43,0l-5.69,1.45c-1.28.33-2.59.49-3.88.49-4.11,0-8.16-1.59-11.15-4.52l-4.2-4.1c-.35-.34-.75-.62-1.18-.84h-36.56v23.55h125.04v-23.55h-33.82Z"/>
    </g>
  </g>
</svg>