<?xml version="1.0" encoding="utf-8"?>
<!-- Generator: Adobe Illustrator 28.1.0, SVG Export Plug-In . SVG Version: 6.00 Build 0)  -->
<svg version="1.1" id="title" xmlns="http://www.w3.org/2000/svg" xmlns:xlink="http://www.w3.org/1999/xlink" x="0px" y="0px"
	 viewBox="0 0 552.1 568.1" style="enable-background:new 0 0 552.1 568.1;" xml:space="preserve">
<style type="text/css">
	 @font-face {
        font-family: 'Cafe24 Moyamoya';
        src: url('https://cdn.jsdelivr.net/gh/projectnoonnu/noonfonts_231029@1.1/Cafe24Moyamoya-Regular-v1.0.woff2') format('woff2');
        font-weight: normal;
        font-style: normal;
      }
	.st0{fill:#FFFFFF;}
	.st1{font-family:'Cafe24 Moyamoya';}
	.st2{font-size:34.24px;}
</style>
<g id="section">
	<g>
		<g>
			<text transform="matrix(1 0 0 1 4.9202 523.5021)" class="st0 st1 st2">LAZY DEVELOPER</text>
			<text transform="matrix(1 0 0 1 4.9198 556.255)" class="st0 st1 st2">CONFERENCE</text>
		</g>
		<path class="st0" d="M0,29.8V6.2h56.2v36.1h13.4v-40h26.1v118.9H69.6V68.8H56.2v52.5H28.5V29.8H0z M104.5,2.3h26.2v118.9h-26.2
			V2.3z"/>
		<path class="st0" d="M282.9,70.4h125.2v20.3H282.9V70.4z M317.4,103.5h86.1V125H287.8V94.4h29.7L317.4,103.5L317.4,103.5
			L317.4,103.5z M288.8,26.5h83.6v-4.9h-83.6V2.5h113.3v40.1h-83v4.9h83.5v18H288.8V26.5L288.8,26.5z"/>
		<path class="st0" d="M0,185h56.2v115.1H28.5v-91.5H0V185L0,185L0,185z M94,248.7v51.4H68V181.2h26v41h10.4v-41h26.2v118.9h-26.2
			v-51.4L94,248.7L94,248.7z"/>
		<path class="st0" d="M147.1,181.9h28.6v35.2h21.8v-35.2H226v54.2h-78.8v-54.2H147.1z M155.4,281.3l97-16h-97v-20.6h111.2v22.8
			L181,281.7h86.6v22.8H155.4V281.3L155.4,281.3L155.4,281.3z M179.7,199.2l14-5.1v7.4l-14,5.1V199.2z M281.4,195.8v23.4h-14.8v18.6
			h-29.5v-56.6h29.5v14.6L281.4,195.8L281.4,195.8z"/>
		<path class="st0" d="M328.3,223.8h28.3l12.4,75h-28.6l-12.2-74.7L316,298.8h-30.2l16.4-92.1H284V185h83.2v21.6H331L328.3,223.8
			L328.3,223.8L328.3,223.8z M380.3,181.2h29.4v45.3H423v24.9h-13.3v48.7h-29.4L380.3,181.2L380.3,181.2L380.3,181.2z"/>
		<path class="st0" d="M43.2,418.7H4.9v-20.1h38.3v-11.8H5.5v-23.5h67.8v71.4H43.2V418.7L43.2,418.7z M12.4,440.6h30.2v19.2h83.3
			v23.5H12.4V440.6z M79.3,385.9h15.8V360h29.4v80.3H95.1v-27.9H79.3V385.9L79.3,385.9L79.3,385.9z"/>
		<path class="st0" d="M152.5,387.7h-9.1V364h83.5v23.7h-46.4l0.4,49.6l10.9-45h27.7l-1.8,62.7h10.1v23.7h-84.5V455h46.9l2.1-48.9
			L182,448.5h-28L152.5,387.7L152.5,387.7z M223,407h15.8v-47h29.5v118.9h-29.5v-45.5H223V407L223,407L223,407z"/>
		<path class="st0" d="M310.6,411.4v8.2h47.7v22.2h-76.4v-50.7h43.2v-7.9h-43.2v-20.7h72v48.9H310.6L310.6,411.4z M289.6,448.1h29.5
			v12.4h83.3v23.2H289.6V448.1z M359.2,385.4h13.1V360h29.4v83.8h-29.4v-34.4h-13.1V385.4L359.2,385.4L359.2,385.4z"/>
		<path class="st0" d="M509,429.5l-25.8-59l-25.6,59h-37.3l30.9-66.8h64.2l30.8,66.8H509L509,429.5L509,429.5z M420.7,455.4h125.2
			v23.5H420.7V455.4L420.7,455.4L420.7,455.4z"/>
		<g>
			<path class="st0" d="M213,1.8l5.7-1.5c3.5-0.9,7.2,0.1,9.8,2.6l4.2,4.1c1.2,1.2,2.8,2.1,4.4,2.6l5.6,1.6c3.5,1,6.2,3.7,7.2,7.2
				l1.6,5.6c0.5,1.7,1.4,3.2,2.6,4.4l4.1,4.2c2.5,2.6,3.5,6.3,2.6,9.8l-1.5,5.7c-0.4,1.7-0.4,3.5,0,5.1l1.5,5.7
				c0.9,3.5-0.1,7.2-2.6,9.8l-4.1,4.2c-1.2,1.2-2.1,2.8-2.6,4.4l-1.6,5.7c-1,3.5-3.7,6.2-7.2,7.2l-5.6,1.6c-1.7,0.5-3.2,1.3-4.4,2.6
				l-4.2,4.1c-2.6,2.5-6.3,3.5-9.8,2.6l-5.7-1.4c-1.7-0.4-3.4-0.4-5.1,0l-5.7,1.4c-3.5,0.9-7.2-0.1-9.8-2.6l-4.2-4.1
				c-1.2-1.2-2.8-2.1-4.4-2.6l-5.6-1.6c-3.5-1-6.2-3.7-7.2-7.2l-1.6-5.7c-0.5-1.7-1.4-3.2-2.6-4.4l-4.1-4.2
				c-2.5-2.6-3.5-6.3-2.6-9.8l1.4-5.7c0.4-1.7,0.4-3.5,0-5.1l-1.4-5.7c-0.9-3.5,0.1-7.2,2.6-9.8l4.1-4.2c1.2-1.2,2.1-2.8,2.6-4.5
				l1.6-5.6c1-3.5,3.7-6.2,7.2-7.2l5.6-1.6c1.7-0.5,3.2-1.4,4.4-2.6l4.2-4.1c2.6-2.5,6.3-3.5,9.8-2.6l5.7,1.5
				C209.5,2.2,211.3,2.2,213,1.8z"/>
			<path d="M230.2,73.7h-0.1c-7.3,0-12.7-1.2-15.2-1.9c-1.3-0.3-2-1.7-1.7-2.9c0.4-1.3,1.7-2,2.9-1.7c2.3,0.7,7.3,1.7,14,1.8h0.1
				c6.4,0,11.1-1,13.4-1.6c1.3-0.3,2.6,0.4,2.9,1.7c0.3,1.3-0.4,2.6-1.7,2.9C242.3,72.6,237.1,73.7,230.2,73.7L230.2,73.7
				L230.2,73.7z"/>
			<path d="M161.1,49.8c-0.9,0-1.8-0.5-2.2-1.4c-0.6-1.2,0-2.6,1.2-3.2c2.4-1.1,7.4-3.1,14.2-4.2c7.2-1.2,12.7-1,15.3-0.7
				c1.3,0.1,2.3,1.3,2.1,2.6s-1.3,2.3-2.6,2.1c-2.4-0.2-7.4-0.5-14.1,0.7c-6.3,1.1-10.9,2.9-13.1,3.9
				C161.8,49.7,161.5,49.8,161.1,49.8L161.1,49.8L161.1,49.8z"/>
			<g>
				<path d="M250.3,22h-40.7c-11.6,0-21.2,9.3-21.3,20.9c-0.1,11.7,9.4,21.2,21.1,21.2c5.8,0,11.1-2.3,14.9-6.2
					c3.1-3.1,8.2-3.1,11.2,0c3.9,3.9,9.2,6.2,15.1,6.1c11-0.1,20.2-8.9,20.8-19.9C272,32,262.3,21.9,250.3,22
					C250.3,21.9,250.3,22,250.3,22z"/>
				<g>
					<path class="st0" d="M208.8,45.7L208.8,45.7c-4.7,0-8.1-0.9-9.7-1.5c-1-0.3-1.5-1.4-1.2-2.4s1.4-1.5,2.4-1.2
						c1.4,0.5,4.4,1.3,8.4,1.3h0.1c3.9,0,6.7-0.7,8.1-1.2c1-0.3,2,0.2,2.3,1.2s-0.2,2-1.2,2.3C216.5,44.8,213.2,45.7,208.8,45.7
						L208.8,45.7L208.8,45.7z"/>
					<path class="st0" d="M208.8,49c-1,0-1.9-0.8-1.9-1.9v-3.3c0-1,0.8-1.9,1.9-1.9s1.9,0.8,1.9,1.9v3.3
						C210.6,48.1,209.8,49,208.8,49z"/>
					<path class="st0" d="M201.5,48.3c-0.2,0-0.4,0-0.6-0.1c-1-0.3-1.5-1.4-1.2-2.3l1.1-3.1c0.3-1,1.4-1.5,2.4-1.2s1.5,1.4,1.2,2.3
						l-1.1,3.1C203,47.8,202.3,48.3,201.5,48.3L201.5,48.3L201.5,48.3z"/>
					<path class="st0" d="M215.7,48.3c-0.8,0-1.5-0.5-1.8-1.3l-1.1-3.1c-0.3-1,0.2-2,1.2-2.3s2,0.2,2.4,1.2l1.1,3.1
						c0.3,1-0.2,2-1.2,2.3C216.1,48.3,215.9,48.3,215.7,48.3L215.7,48.3L215.7,48.3z"/>
				</g>
				<g>
					<path class="st0" d="M251.1,45.7L251.1,45.7c-4.7,0-8.1-0.9-9.7-1.5c-1-0.3-1.5-1.4-1.2-2.4s1.4-1.5,2.4-1.2
						c1.4,0.5,4.4,1.3,8.4,1.3h0.1c3.9,0,6.7-0.7,8.1-1.2c1-0.3,2,0.2,2.3,1.2s-0.2,2-1.2,2.3C258.7,44.8,255.4,45.7,251.1,45.7
						L251.1,45.7L251.1,45.7z"/>
					<path class="st0" d="M251,49c-1,0-1.9-0.8-1.9-1.9v-3.3c0-1,0.8-1.9,1.9-1.9s1.9,0.8,1.9,1.9v3.3C252.9,48.1,252,49,251,49z"/>
					<path class="st0" d="M243.8,48.3c-0.2,0-0.4,0-0.6-0.1c-1-0.3-1.5-1.4-1.2-2.3l1.1-3.1c0.3-1,1.4-1.5,2.4-1.2s1.5,1.4,1.2,2.3
						l-1.1,3.1C245.3,47.8,244.5,48.3,243.8,48.3L243.8,48.3L243.8,48.3z"/>
					<path class="st0" d="M258,48.3c-0.8,0-1.5-0.5-1.8-1.3l-1.1-3.1c-0.3-1,0.2-2,1.2-2.3c1-0.3,2,0.2,2.4,1.2l1,3.1
						c0.3,1-0.2,2-1.2,2.3C258.3,48.3,258.1,48.3,258,48.3L258,48.3L258,48.3z"/>
				</g>
			</g>
		</g>
		<path class="st0" d="M237.7,97.7c-0.4,0.2-0.8,0.5-1.2,0.8l-4.2,4.1c-3.9,3.8-9.7,5.4-15,4l-5.7-1.4c-0.8-0.2-1.6-0.2-2.4,0
			l-5.7,1.4c-1.3,0.3-2.6,0.5-3.9,0.5c-4.1,0-8.2-1.6-11.1-4.5l-4.2-4.1c-0.4-0.3-0.8-0.6-1.2-0.8h-36.6v23.6h125V97.7H237.7
			L237.7,97.7z"/>
	</g>
</g>
</svg>
